<?xml version="1.0" encoding="UTF-8"?>
<svg id="Layer_1" data-name="Layer 1" xmlns="http://www.w3.org/2000/svg" viewBox="0 0 175.34 169.41">
  <defs>
    <style>
      .cls-1 {
        fill: #1e9e57;
      }
    </style>
  </defs>
  <path class="cls-1" d="M76.38,7.44c4.27-.02,15.97-.02,35.12,0,7.55,0,11.64,4.85,15.61,11.87,3.96,7.01,6.85,12.17,8.68,15.46.23.41.75.55,1.15.32l9.33-5.39c.57-.33,1.22.27.95.87l-14.79,32.07c-.15.32-.48.52-.83.5l-36.54-2.25c-.46-.03-.76-.48-.62-.91.09-.28.24-.48.45-.59,2.55-1.33,5.79-3.2,9.7-5.61.26-.16.34-.5.18-.76-6.11-10.17-13.33-22.57-21.65-37.21-2.01-3.54-3.69-5.65-6.94-7.64-.33-.21-.19-.72.2-.72Z"/>
  <path class="cls-1" d="M32.94,45.68c-.13-.08-.18-.25-.1-.39,9.89-17.2,14.85-25.85,14.9-25.95,1.78-3.65,3.85-6.28,6.21-7.88,6.54-4.44,12.66-3.67,18.86.77,1.39,1,3.2,3.47,5.42,7.41,1.02,1.82,3.14,5.34,6.36,10.57.29.47.3,1.06.02,1.54l-18.54,32.11c-.23.39-.73.53-1.12.3l-32.01-18.48Z"/>
  <path class="cls-1" d="M121.33,81.09c-.14-.24-.06-.55.18-.69l31.86-18.4c.56-.32,1.28-.12,1.59.45,6.66,12.11,11.5,20.71,14.52,25.82,3.4,5.76,4.62,9.01,3.17,14.59-1.52,5.82-8.02,8.93-13.71,9-6.19.09-12.68.02-19.45-.21-.32-.01-.62-.19-.79-.47l-17.37-30.09Z"/>
  <path class="cls-1" d="M24.5,138.96c0,.34-.45.46-.63.18-5.31-8.15-11.64-18.42-18.99-30.79-2.44-4.11-2.44-8.49,0-13.12,4.07-7.73,7.95-14.7,11.66-20.91.14-.24.06-.56-.18-.71l-9.75-5.93c-.5-.31-.33-1.08.26-1.13l36.32-3c.37-.03.72.18.88.52l14.69,32.3c.26.57-.37,1.14-.91.83l-8.62-4.98c-.38-.22-.87-.09-1.09.29-7.63,13.11-15.06,26.65-22.27,40.62-.85,1.67-1.31,3.61-1.36,5.83Z"/>
  <path class="cls-1" d="M112.42,166.06c0,.65-.85.91-1.21.36l-20.13-30.73c-.37-.57-.37-1.31.02-1.87l20.05-29.12c.37-.54,1.22-.28,1.22.38v12.07c0,.37.3.67.67.68,10,.26,20.14,0,31.3.24,9.83.21,16.15.95,22.17-1.63.45-.19.88.3.63.72-5.89,9.88-11.01,18.87-15.36,26.96-1.99,3.71-3.78,6.09-5.37,7.16-2.99,1.99-6.44,2.99-10.37,2.98-9.89-.01-17.54-.03-22.93-.06-.38,0-.69.31-.69.69v11.17Z"/>
  <path class="cls-1" d="M82.71,154.62c0,.28-.22.51-.5.51-18.89.09-29.2.15-30.95.18-4.53.09-7.82-.22-9.87-.92-9.17-3.12-13.69-12.73-8.5-21.51,2.63-4.43,5.3-9.5,8.03-15.22.43-.9,1.33-1.47,2.32-1.47h38.88c.33.01.59.27.59.59v37.84Z"/>
</svg>