<?xml version="1.0" encoding="UTF-8"?>
<svg id="Layer_1" data-name="Layer 1" xmlns="http://www.w3.org/2000/svg" viewBox="0 0 216.85 243.95">
  <defs>
    <style>
      .cls-1 {
        fill: #dc161f;
      }
    </style>
  </defs>
  <path class="cls-1" d="M85.08,102.41l10.35-3.55c.08-.03.14-.11.14-.19.4-8.27,6.08-9.88,13.42-9.71,2.9.07,5.8.04,8.71-.08,5.33-.22,9.61,1.15,12.05,5.89,3.33,6.47,1.31,16.12-4.8,20.14-1.95,1.28-4.8,2.26-8.55,2.94-5.48.99-11.07,1.81-16.78,2.45-.3.03-.58.14-.82.31-1.79,1.25-2.65,2.67-2.58,4.26.59,14.31-.05,25.71-10.45,36.28-.73.73-2.38,2.17-4.96,4.32-1.15.96-1.82,1.78-2,2.45-.63,2.33,2.18,3.94,4.18,2.88,2.89-1.53,5.58-3.41,8.07-5.64.28-.25.72-.21.95.1l3.14,4.25c.32.44.36,1.03.09,1.51-1.25,2.18-1.91,5.28-1.96,9.29-.08,6.2,2.6,10.66,8.03,13.39.8.4,1.15,1.34.82,2.17-4.78,11.94-16.53,20.07-28.78,22.9-4.73,1.09-7.78,1.88-9.16,2.36-4.58,1.61-9.64,3.66-15.18,6.16-8.2,3.7-17.35,6.89-25.11,10.16-3.9,1.64-6.27,1.01-7.15-3.08-4.94-22.98-8.91-42.05-13.65-60.74-.99-3.88.3-5.41,3.97-6.77,8.86-3.29,13.75-5.19,14.66-5.69,2.49-1.36,4.07-3.53,4.75-6.51,3-13.04,6.42-28.79,10.25-47.26.99-4.78,4.07-7.57,8.88-9.7,3.75-1.65,8.13-3.74,13.13-6.25.89-.45,1.94.2,1.94,1.2v21.67c0,.7.75,1.13,1.36.79l7.9-4.47c.32-.17.51-.51.52-.87.19-23.6.28-45.06.27-64.37-.01-9.63,5-14.55,15.03-14.74,9.11-.18,18.5-.27,28.16-.26,3.52,0,4.46-1.88,4.4-5.25-.05-3.06-.4-7.41.77-9.93,2.02-4.35,5.64-6.65,10.86-6.88,1.23-.05,9.28,0,24.15.13,5.73.05,9.54,3.13,11.45,9.22.04.14.06.28.07.43l.1,9.51c.02,1.52,1.24,2.76,2.76,2.79,13.25.3,21.63.41,25.12.33,5.57-.12,9.35.34,11.34,1.38,3.51,1.83,5.94,4.4,7.29,7.71.66,1.6.99,5.14.98,10.63-.08,67.26-.07,124.4.02,171.41,0,.15-.02.3-.05.45-1.65,8.31-6.91,12.45-15.78,12.41-10.19-.05-46.78-.06-109.77-.05-5.25,0-10.01-.49-13.18-5.17-.41-.61-.17-1.44.5-1.74l17.05-7.43c.41-.17.85-.26,1.29-.27,16.19-.06,50.64-.08,103.35-.06,2.72,0,3.14-1.49,3.15-3.98,0-6.27.06-12.51.14-18.71.11-8.38.16-43.13.14-104.25-.01-15.54-.44-29.78-.06-44.98.03-1.31-.69-2.34-2.16-3.11-.26-.14-.55-.21-.85-.2-7.76.09-11.8.13-12.13.12-2.11-.03-3.11.76-3.01,2.39.4,6.56-.52,10.71-7.91,10.73-25.76.06-47.85.03-66.26-.08-2.67,0-4.45-1.46-5.36-4.33-.09-.27-.13-.54-.14-.82-.07-1.67-.09-3.28-.04-4.84.07-2.45-.95-3.32-3.29-3.28-7.42.15-11.5.26-12.23.35-1.39.16-2.11.94-2.14,2.35-.13,5.63-.14,23.82-.03,54.58,0,.32.32.55.62.45Z"/>
  <path class="cls-1" d="M164.46,94.03c.34.34.9.34,1.24-.01l11.77-12.19c1.62-1.67,4.31-1.63,5.88.08l.07.08c1.56,1.7,1.49,4.32-.15,5.94-3.47,3.41-8.19,8.33-14.16,14.77-3.28,3.54-4.57,3.34-7.72.27-2.52-2.45-4.8-4.8-6.84-7.05-1.43-1.57-1.38-3.99.13-5.5l.38-.38c1.49-1.5,3.91-1.5,5.41,0l3.99,3.99Z"/>
  <path class="cls-1" d="M126.33,122.33c1.69.92,2.76,1.78,3.2,2.59,3.65,6.73,1.82,16.3-7.42,16.3-4.7,0-9.95.02-15.76.05-.34.01-.68-.07-.99-.23-1.72-.89-2.64-2.38-2.75-4.47-.27-5.03-.7-10.11,5.52-10.67,6.3-.57,11.89-1.79,16.77-3.66.46-.18.99-.15,1.43.09Z"/>
  <path class="cls-1" d="M184.73,132.27c0,2.73-2.2,4.94-4.93,4.95l-24.34.04c-2.73,0-4.94-2.2-4.95-4.93v-.44c-.01-2.73,2.2-4.94,4.93-4.95l24.34-.04c2.73,0,4.94,2.2,4.95,4.93v.44Z"/>
  <path class="cls-1" d="M125.04,147.31c.69-.05,1.38.14,1.95.53,5.2,3.61,5.47,11.56,1.15,16-.88.9-2,1.42-3.37,1.56-1.18.13-6.96.22-17.35.29-3.05.01-5.14-.4-6.25-1.24-5.38-4.09-2.24-9.95.11-14.75.91-1.87,2.33-1.65,4.17-1.7,10.65-.29,17.18-.52,19.59-.69Z"/>
  <path class="cls-1" d="M184.77,168.86c0,2.79-2.26,5.05-5.05,5.05h-24.24c-2.79,0-5.05-2.26-5.05-5.05v-.38c0-2.79,2.26-5.05,5.05-5.05h24.24c2.79,0,5.05,2.26,5.05,5.05v.38Z"/>
  <path class="cls-1" d="M128.53,180.63c.05,3.93-3.1,7.16-7.04,7.22l-14.16.17c-3.94.04-7.17-3.11-7.22-7.04l-.03-2.28c-.05-3.93,3.1-7.16,7.04-7.22l14.16-.17c3.94-.04,7.17,3.11,7.22,7.04l.03,2.28Z"/>
</svg>