<?xml version="1.0" encoding="UTF-8"?>
<svg id="Layer_1" data-name="Layer 1" xmlns="http://www.w3.org/2000/svg" viewBox="0 0 193.13 188.05">
  <defs>
    <style>
      .cls-1 {
        fill: #dc161f;
      }
    </style>
  </defs>
  <path class="cls-1" d="M101.43,4.38c5.2,0,10.58-.62,12.57.74,3.58,2.45,2.4,7.37-1.17,9.23-.16.08-.33.12-.51.12h-5.47c-.41,0-.75.34-.75.75v6.03c0,.44.35.81.79.83,23.78,1.23,40.83,18.07,39.48,42.48-.02.38-.33.68-.71.68-.52.01-15.27,0-44.27,0-29-.02-43.75-.03-44.27-.04-.38,0-.69-.3-.71-.69-1.32-24.41,15.75-41.23,39.53-42.43.45-.02.79-.38.79-.83v-6.03c.01-.41-.32-.75-.74-.75h-5.47c-.17,0-.35-.05-.51-.12-3.56-1.87-4.74-6.79-1.16-9.23,2-1.37,7.38-.73,12.58-.73Z"/>
  <path class="cls-1" d="M154.83,83.04c0,2.14-1.74,3.88-3.88,3.88H51.95c-2.14,0-3.88-1.74-3.88-3.88v-8.26c0-2.14,1.74-3.88,3.88-3.88h99c2.14,0,3.88,1.74,3.88,3.88v8.26Z"/>
  <path class="cls-1" d="M177.54,132.23c0,.36-.3.66-.67.66h-78.7c-.79,0-1.43-.63-1.43-1.41v-34.37c0-.18.03-.34.1-.51.72-1.68,1.79-2.52,3.22-2.53,10.32-.04,32.79-.1,67.39-.19,4.34,0,9.97.07,10.07,5.79.19,10.35.2,21.21.03,32.55Z"/>
  <path class="cls-1" d="M89.41,97.67c-.02-1.75-1-2.95-2.95-3.6-.16-.05-.32-.08-.49-.08-37.29-.03-61.37-.04-72.24-.03-5.94.01-6.48,3.65-6.5,8.91-.05,16.79-.08,26.47-.08,29.05,0,.94.76,1.71,1.71,1.71h79.61c.51,0,.93-.41.94-.92.17-8.07.17-19.75,0-35.04ZM60.12,117.05l-21.64.04c-1.54,0-2.79-1.25-2.79-2.79v-4.76c-.01-1.54,1.24-2.79,2.78-2.79l21.64-.04c1.54,0,2.79,1.25,2.79,2.79v4.76c.01,1.54-1.24,2.79-2.78,2.79Z"/>
  <path class="cls-1" d="M89.59,145.81c.02-2.66.43-4.99-2.54-4.98-23.75.09-46.75.06-69-.07-3.13-.02-6.07.08-8.84.3-.84.06-1.55.63-1.8,1.44-.13.42-.2.89-.2,1.4.01,19.65,0,31.95-.03,36.92-.04,5.68,7.14,4.67,10.62,4.6,6.7-.12,29.59-.16,68.68-.13,2.1,0,3.14-.97,3.13-2.92-.1-12.63-.11-24.81-.02-36.56ZM60.36,166.73l-21.7.11c-1.53,0-2.77-1.22-2.77-2.75l-.03-4.92c0-1.52,1.22-2.77,2.75-2.77l21.7-.11c1.53,0,2.77,1.22,2.77,2.75l.03,4.92c0,1.52-1.22,2.77-2.75,2.77Z"/>
  <path class="cls-1" d="M188.84,145.62c.11-3.51.09-4.77-4.04-4.77-39.49-.05-68.23,0-86.21.13-1.05,0-1.9.87-1.9,1.92v39.86c0,1.38,1.11,2.49,2.49,2.5,38.81.06,67.09.06,84.86-.01,3.26-.01,4.88-1.63,4.85-4.84-.16-19.29-.18-30.89-.05-34.79ZM153.66,166.83l-21.58.08c-1.55,0-2.82-1.25-2.82-2.8l-.02-4.98c0-1.55,1.25-2.82,2.8-2.82l21.58-.08c1.55,0,2.82,1.25,2.82,2.8l.02,4.98c0,1.55-1.25,2.82-2.8,2.82Z"/>
</svg>