<?xml version="1.0" encoding="UTF-8"?>
<svg id="Layer_1" data-name="Layer 1" xmlns="http://www.w3.org/2000/svg" viewBox="0 0 249.88 195.67">
  <defs>
    <style>
      .cls-1 {
        fill: #dc161f;
      }
    </style>
  </defs>
  <path class="cls-1" d="M168.72,112.47h-53.08c-.5,0-.91-.4-.92-.9-.01-.7.04-6.59.16-17.68,0-1.75.85-2.6,2.52-2.57,3.03.06,5.93.05,8.7-.03.54,0,1.06-.24,1.44-.63,28.07-28.99,54.75-55.92,80.05-80.77.21-.21.33-.5.33-.79-.02-2.07.81-3.62,2.5-4.66.39-.24.83-.36,1.28-.37.79-.01,6.88.02,18.27.09,2.58.02,4.29,1.09,4.32,3.74.12,12.39.15,21.79.08,28.2-.01.52-.41.96-.94,1.02-1.78.19-3.44.21-4.99.06-2.63-.25-6.01-4.81-7.42-7.04-.2-.32-.67-.34-.9-.04l-49.88,65.18c-.62.81-.95,1.8-.95,2.81v13.81c0,.31-.26.57-.57.57Z"/>
  <path class="cls-1" d="M228.12,50.62c.02.52.49.91,1.01.82,2.73-.43,4.2.36,4.41,2.38.11,1.03.13,3.72.06,8.07-.01.68-.11,1.35-.31,2-.59,1.99-.93,4.12-1,6.41-.11,3.53-5.47,4.3-7.27,5.96-3.13,2.9-3.84,6.06-2.15,9.49,1.41,2.84,3.64,4.22,6.69,4.14,5.31-.15,7.96-2.74,7.94-7.76-.01-1.79,1.44-3.24,3.23-3.24h2.78c1.5,0,2.75,1.17,2.85,2.67,1.07,16.09-18.15,23.85-29.04,12.62-8.18-8.43-4.88-21.03,4.68-26.65.41-.24.66-.68.66-1.16v-8.37c0-.38-.33-.68-.71-.63-1.83.24-2.84-.58-3.01-2.47-.3-3.33-.47-5.49-.5-6.48-.19-5.37,3.83-6.74,8.28-4.92.68.28,1.13.92,1.16,1.65l.24,5.47Z"/>
  <path class="cls-1" d="M236.08,148.18c-.08-1.64-.82-2.59-2.18-3.19-.31-.14-.5-.44-.51-.78-.11-6.11-.11-12.95,0-20.54.06-3.62-2.67-4.24-5.88-4.25-43.7-.03-83.58-.02-119.63.03-.35,0-.63-.29-.63-.64.01-27.89,0-52.18-.02-72.87,0-2.81-1.38-4.25-4.13-4.31-5.33-.11-20.16-.12-44.47-.02-3.47.01-6.21.57-8.22,1.67-1.67.91-3.67,2.85-5.98,5.8-14.44,18.41-24.53,31.36-30.27,38.85-1.56,2.03-2.34,4.35-2.34,6.96.01,23.46-.02,39.89-.11,49.3-.01.49-.41.88-.9.86-1.73-.07-2.93.74-3.61,2.43-.05.13-.08.27-.08.41l-.18,14.46c-.01.32.07.64.22.92.76,1.48,1.71,2.25,2.84,2.31,3.8.19,9.28.17,16.45-.06.39-.01.71-.31.75-.7.21-2.01-.19-4.45.23-6.72,2.02-10.99,7.84-20.32,18.55-24.6,14.42-5.76,29.37-1.21,38.03,11.44,3.91,5.7,5.59,12.3,5.04,19.79-.03.46.34.85.8.85h69.67c.32,0,.57-.27.55-.58-.57-8.03,1.55-15.3,6.38-21.81,5.36-7.23,12.57-11.22,21.63-11.96,11-.89,19.87,2.73,26.61,10.86,5.39,6.51,7.75,14.02,7.08,22.52-.04.54.4,1,.94.99,2.79-.06,5.71-.07,8.74-.03,2.53.04,4.68-.99,4.76-3.66.13-4.27.09-8.84-.13-13.73ZM88.02,91.49c0,.86-.68,1.58-1.54,1.62-.22.01-.51.02-.86.02-33.61.08-52.27.11-55.96.09-.42,0-.73-.1-.93-.31-.59-.63-.64-1.58-.12-2.24,10.04-12.82,18.26-23.36,24.67-31.61,1.05-1.36,2.76-2.06,5.13-2.09,12.15-.17,21.39-.21,27.74-.12,1.04.02,1.87.86,1.87,1.9v32.74Z"/>
  <path class="cls-1" d="M61.56,138.75c-13.09-1.82-25.2,7.47-27.04,20.75-1.85,13.28,7.27,25.51,20.37,27.33,13.09,1.82,25.2-7.47,27.04-20.75,1.85-13.28-7.27-25.51-20.37-27.33ZM58.11,172.09c-5.06,0-9.17-4.11-9.17-9.17s4.11-9.17,9.17-9.17,9.17,4.11,9.17,9.17-4.11,9.17-9.17,9.17Z"/>
  <path class="cls-1" d="M191.02,138.49c-13.26.07-23.96,11-23.89,24.41.07,13.41,10.88,24.22,24.15,24.15,13.26-.07,23.96-11,23.89-24.41-.07-13.41-10.88-24.22-24.15-24.15ZM191.07,172.02c-5.01,0-9.07-4.06-9.07-9.07s4.06-9.07,9.07-9.07,9.07,4.06,9.07,9.07-4.06,9.07-9.07,9.07Z"/>
</svg>