<?xml version="1.0" encoding="UTF-8"?>
<svg id="Layer_1" data-name="Layer 1" xmlns="http://www.w3.org/2000/svg" viewBox="0 0 160.09 181.27">
  <defs>
    <style>
      .cls-1 {
        fill: #dc161f;
      }
    </style>
  </defs>
  <path class="cls-1" d="M110.87,23.34c9.56,9.59,15.98,16.03,19.25,19.32.18.18.26.37.24.57-.03.28-.18.42-.47.42-12.71.04-24.51.08-35.4.13-1.05,0-2-.42-2.85-1.27s-1.27-1.8-1.26-2.86c.08-10.88.15-22.68.23-35.39,0-.29.14-.45.42-.47.2-.02.39.06.57.24,3.28,3.28,9.7,9.72,19.27,19.31Z"/>
  <path class="cls-1" d="M123.6,103.54c-20.42-2.07-38.68,13.02-40.78,33.71-2.1,20.7,12.75,39.15,33.16,41.22,20.42,2.07,38.68-13.02,40.78-33.71,2.1-20.7-12.75-39.15-33.16-41.22ZM142.44,130.18s-8.52,9.36-25.45,27.97c-1.73,1.91-3.69,2.46-5.87,1.67-.2-.07-.38-.19-.53-.34l-14.73-14.27c-.15-.15-.26-.32-.34-.51-1.34-3.37.48-4.74,3.06-6.98.37-.32.83-.5,1.32-.51,1.38-.03,2.56.4,3.53,1.3.83.77,3.78,3.58,8.86,8.41.26.24.63.32.96.2.03-.01.07-.01.14.02.04.02.13-.03.21-.12l21.44-23.31c1.35-1.48,3.64-1.6,5.16-.29l2.08,1.8c1.49,1.29,1.56,3.57.16,4.96Z"/>
  <path class="cls-1" d="M130.52,51.27c-13.76.17-25.52.18-35.29.04-2.84-.04-4.93-.38-6.28-1.01-5.68-2.67-6.11-6.95-6.07-13.75.06-10.45.03-21.16-.09-32.14-.01-.31-.25-.55-.56-.55-32.47-.03-55.47-.01-68.98.05-3.37.01-5.73,1.12-7.09,3.31-.78,1.25-1.17,3.92-1.17,7.99-.06,61.86-.05,111.59.03,149.18.01,6.66,4.3,8.86,10.75,8.42.68-.05,24.03-.03,70.04.06.2,0,.31-.22.2-.38-1.02-1.41-1.95-2.7-2.78-3.85-11.29-15.69-12.04-36.22-1.73-52.62,10.5-16.7,29.59-24.58,48.78-20.29.33.08.64-.17.64-.51v-43.55c0-.22-.18-.4-.4-.4ZM26.45,32.79l33.78-.06c1.57,0,2.84,1.27,2.84,2.84v5.4c.01,1.56-1.26,2.84-2.83,2.84l-33.78.06c-1.57,0-2.84-1.27-2.85-2.84v-5.4c-.01-1.56,1.26-2.84,2.83-2.84ZM23.52,64.63c0-1.44,1.16-2.6,2.6-2.6h78.64c1.44,0,2.6,1.16,2.6,2.6v4.8c0,1.44-1.16,2.6-2.6,2.6H26.12c-1.44,0-2.6-1.16-2.6-2.6v-4.8ZM60.17,138.45l-34.12.18c-1.35.01-2.45-1.08-2.45-2.43l-.03-5.24c0-1.35,1.08-2.44,2.43-2.45l34.12-.18c1.35-.01,2.45,1.08,2.45,2.43l.03,5.24c0,1.35-1.08,2.44-2.43,2.45ZM73.02,113.84c0,1.29-1.05,2.34-2.34,2.34H25.9c-1.29,0-2.34-1.05-2.34-2.34v-5.2c0-1.29,1.05-2.34,2.34-2.34h44.78c1.29,0,2.34,1.05,2.34,2.34v5.2ZM107.48,92.51c0,.92-.74,1.66-1.66,1.66H27c-1.84,0-3.34-.95-3.34-2.12v-5.74c0-1.17,1.5-2.12,3.34-2.12h78.82c.92,0,1.66.74,1.66,1.66v6.66Z"/>
</svg>