<?xml version="1.0" encoding="UTF-8"?>
<svg id="Layer_1" data-name="Layer 1" xmlns="http://www.w3.org/2000/svg" viewBox="0 0 193.98 178.73">
  <defs>
    <style>
      .cls-1 {
        fill: #dc161f;
      }
    </style>
  </defs>
  <path class="cls-1" d="M188.63,77.07c-.03-3.01-.83-5.39-2.4-7.14-15.68-17.61-33.82-36.71-54.42-57.3-3.11-3.11-7.11-4.67-12.01-4.68-30.87-.1-53.09-.1-66.67,0-2.27.01-4.3.59-6.1,1.73-1.32.83-2.72,2.41-4.19,4.73-12.51,19.75-24.05,38.75-34.62,56.98-2.16,3.71-3.29,7.43-3.39,11.16-.43,16.33.37,42.04.19,63.34-.09,12.01-.1,18.9-.01,20.67.18,3.57,1.47,6.18,3.88,7.84,1.26.88,4.19,1.33,8.79,1.35,39.51.21,79.24.26,119.18.15,2.9-.01,5.5.13,7.83-1.55,1.93-1.38,2.96-3,3.1-4.86.46-6.17,1.54-11.94,3.24-17.3,2.04-6.43,5.32-11.73,9.85-15.89,9.85-9.07,14.92-13.75,15.21-14.04,2.93-3.05,6.31-6.17,10.13-9.37.28-.23.52-.51.71-.83,1.11-1.89,1.69-3.81,1.72-5.77.12-7.44.11-17.18-.02-29.22ZM168.61,103.88c0,2.41-1.96,4.37-4.37,4.37h-33.06c-2.41,0-4.37-1.96-4.37-4.37v-6.96c0-2.41,1.96-4.37,4.37-4.37h33.06c2.41,0,4.37,1.96,4.37,4.37v6.96ZM168.8,73.41c-3.3,2.7-8.56,2.21-13.93,2.16-44.65-.4-80.9-.86-108.75-1.39-7.76-.14-15.1-.6-22.02-1.37-.59-.07-.92-.72-.61-1.22l29.18-47.96c.14-.23.34-.42.58-.55,2.17-1.18,4.59-1.82,7.26-1.91,16.95-.59,35.34-.62,55.16-.08,3.59.09,6.05.27,8.55,2.85,2.06,2.13,16.48,17.26,43.26,45.38.98,1.03,1.53,1.63,1.64,1.79.51.73.37,1.74-.32,2.3Z"/>
</svg>