<?xml version="1.0" encoding="UTF-8"?>
<svg id="Layer_1" data-name="Layer 1" xmlns="http://www.w3.org/2000/svg" viewBox="0 0 212.61 233.79">
  <defs>
    <style>
      .cls-1 {
        fill: #dc161f;
      }
    </style>
  </defs>
  <path class="cls-1" d="M201.38,36.69c2.29-2.38,5.29-2,6.88,1.11.13.25.22.52.26.8,2.28,16.2.26,32.13-10.15,45.34-7.97,10.11-18.73,16.3-32.3,18.57-4.13.69-7.34,2.88-9.65,6.58-2.47,3.97-8.91,13.95-19.32,29.95-19.22,29.53-36.41,56.34-51.58,80.41-4.69,7.43-11.11,11.46-19.27,12.09-16.19,1.25-27.87-13.84-24.55-28.67.55-2.45,2.72-6.53,6.49-12.23,30.59-46.09,53.51-80.85,68.76-104.26,2.54-3.89,2.29-8.07.23-12.63C100.76,37.36,129.05-.12,168.26,3.48c2.34.21,4.95.67,5.65,3.12.47,1.61-.03,3.2-1.48,4.76-5.3,5.68-12.74,13.68-22.31,24-2.7,2.91-4.32,5.44-4.87,7.57-.91,3.55.17,6.8,3.25,9.75,4.91,4.73,7.76,7.47,8.53,8.22,3.51,3.41,6.17,5.26,8,5.57,5.25.88,8.43-.65,12.39-4.81,4.15-4.38,12.14-12.7,23.96-24.97Z"/>
  <path class="cls-1" d="M91.75,99.49c0,2.99-2.4,5.42-5.39,5.43l-55.2.19c-2.99.01-5.42-2.41-5.43-5.39v-.22c-.01-2.99,2.4-5.42,5.39-5.43l55.2-.19c2.99-.01,5.42,2.41,5.43,5.39v.22Z"/>
  <path class="cls-1" d="M73.21,127.61c0,2.99-2.42,5.42-5.41,5.43l-60.48.11c-2.99,0-5.42-2.41-5.43-5.41v-.2c-.01-2.99,2.42-5.42,5.41-5.43l60.48-.11c2.99,0,5.42,2.41,5.43,5.41v.2Z"/>
  <path class="cls-1" d="M54.96,154.95c.02,2.89-2.31,5.25-5.2,5.28l-30.12.21c-2.9.02-5.26-2.31-5.28-5.2v-.3c-.02-2.89,2.31-5.25,5.2-5.28l30.12-.21c2.9-.02,5.26,2.3,5.28,5.2v.3Z"/>
  <path class="cls-1" d="M67.84,196.43c6.07,1.5,9.75,7.72,8.22,13.9-1.53,6.18-7.69,9.96-13.76,8.46-6.07-1.5-9.75-7.72-8.22-13.9,1.53-6.18,7.69-9.96,13.76-8.46Z"/>
</svg>