<?xml version="1.0" encoding="UTF-8"?>
<svg id="Layer_1" data-name="Layer 1" xmlns="http://www.w3.org/2000/svg" viewBox="0 0 170.26 170.26">
  <defs>
    <style>
      .cls-1 {
        fill: #dc161f;
      }
    </style>
  </defs>
  <path class="cls-1" d="M153.74,41.62C132.34,7.24,88.7-5.19,52.49,10.95,30.87,20.6,14.54,39.99,8.55,63.09c-5.53,21.33-1.71,44,9.93,62.71,11.65,18.71,30.3,32.15,51.88,36.61,23.37,4.82,47.98-1.26,66.18-16.4,30.48-25.36,38.6-70,17.2-104.39ZM112.73,143.08c-32.42,14.91-70.83.64-85.79-31.88-14.95-32.52-.8-70.97,31.63-85.88,32.42-14.91,70.83-.64,85.79,31.88,14.95,32.52.8,70.97-31.63,85.88Z"/>
  <path class="cls-1" d="M87.76,25.36c1.08-.01,1.97.87,1.97,1.95l.03,5.66c.01,1.92-1.55,3.49-3.48,3.5h-1.36c-1.93.01-3.51-1.54-3.52-3.46l-.03-5.66c0-1.08.87-1.96,1.95-1.97l4.44-.02Z"/>
  <path class="cls-1" d="M91.12,94.75c-.52-.41-1.19-.56-1.83-.42-5.23,1.13-9.08.07-11.55-3.16-3.42-4.46-3.08-11.26,1.54-14.86.41-.32.75-.63,1.03-.94.23-.24.35-.56.35-.89v-26.81c0-1.8,1.46-3.25,3.26-3.26h3.38c1.85,0,3.35,1.5,3.35,3.35v26.36c0,.6.31,1.16.81,1.48,3.31,2.11,4.94,5.23,4.89,9.36,0,.49.19.96.52,1.31.7.74,1.39,1.36,2.06,1.85,5.41,3.93,12.24,9.16,20.47,15.71,1.51,1.19,2.29,2.29,2.34,3.3.17,3.6-3.24,6.94-7.11,5.89-.22-.06-.44-.16-.62-.31l-22.89-17.96Z"/>
  <path class="cls-1" d="M144.53,85.41c0,1.64-1.32,2.98-2.96,2.98l-4.96.02c-1.64,0-2.97-1.32-2.98-2.96v-2.3c-.01-1.64,1.32-2.98,2.95-2.98l4.96-.02c1.64,0,2.97,1.32,2.98,2.96v2.3Z"/>
  <path class="cls-1" d="M38.03,85.34c0,1.63-1.33,2.94-2.97,2.93l-5.1-.03c-1.63,0-2.94-1.34-2.93-2.97v-2.1c.02-1.63,1.35-2.94,2.98-2.93l5.1.03c1.63,0,2.94,1.34,2.93,2.97v2.1Z"/>
  <path class="cls-1" d="M89.79,140.56c0,1.59-1.28,2.89-2.88,2.9h-2.6c-1.6.01-2.9-1.28-2.9-2.87l-.02-5.18c0-1.59,1.28-2.89,2.88-2.9h2.6c1.6-.01,2.9,1.28,2.9,2.87l.02,5.18Z"/>
</svg>