<?xml version="1.0" encoding="UTF-8"?>
<svg id="Layer_1" data-name="Layer 1" xmlns="http://www.w3.org/2000/svg" viewBox="0 0 269.36 250.73">
  <defs>
    <style>
      .cls-1 {
        fill: #1e9e57;
      }
    </style>
  </defs>
  <path class="cls-1" d="M28.57,163.4l-23.39-13.5c-2.41-1.39-3.23-4.47-1.84-6.88l32.56-56.41c1.52-2.62,4.98-3.33,7.4-1.51l21.74,16.35c2.04,1.53,2.61,4.34,1.34,6.55l-30.93,53.56c-1.39,2.41-4.47,3.23-6.88,1.84Z"/>
  <path class="cls-1" d="M264.41,150.24l-23.18,13.1c-2.52,1.43-5.71.54-7.14-1.98l-30.24-53.48c-1.3-2.31-.68-5.22,1.45-6.8l21.58-15.93c2.53-1.86,6.12-1.1,7.67,1.64l31.84,56.31c1.43,2.52.54,5.71-1.98,7.14Z"/>
  <path class="cls-1" d="M194.39,113.33c1.4-.51,2.96.09,3.65,1.41,5.65,10.82,11.4,19.72,17.06,30.22,1.51,2.79,4.67,8.2,9.5,16.23,1.6,2.66,1.01,4.63-1.43,6.46-2.33,1.73-8.37,7.57-18.12,17.52-2.17,2.21-3.88.27-6.02-1.61-27.29-23.92-44.01-38.64-50.16-44.17-5.48-4.92-10.46-3.53-15.99.36-4.15,2.91-8.24,5.9-12.26,8.97-2.67,2.03-4.83,3.26-6.49,3.69-4.49,1.15-9.06-.07-12.31-3.6-3.17-3.44-2.75-9.03.64-11.99,10.03-8.77,21.96-17.05,30.94-24.59,8.98-7.54,18.04-7.86,28.5-4.08,3.03,1.09,8.03,2.99,15.02,5.7,6.25,2.41,11.45,1.7,17.47-.52Z"/>
  <path class="cls-1" d="M61.15,180.87c-.13,0-.29-.09-.47-.26-9.49-8.58-14.31-12.93-14.46-13.05-1.97-1.61-2.34-3.47-1.12-5.58,7.35-12.64,16.35-28.4,27.01-47.27.99-1.74,2.97-1.63,4.83-.95,9.66,3.49,16.96.02,27.2-3.48,4.36-1.48,14.78-3.12,18.32.5.45.45.4,1.2-.1,1.59-14.17,11.22-22.1,17.49-23.79,18.8-6.63,5.16-7.72,15.39-2.37,21.81,6.46,7.73,17.36,8.99,25.48,3.29,8.35-5.87,13.59-9.54,15.71-11.02,3.51-2.44,5.91-1.28,8.99,1.43,10.25,9.03,26.74,23.58,49.49,43.66,3.55,3.14,5.59,5.27,6.11,6.39,3.44,7.5-4.68,15.87-12.37,11.75-.18-.09-.35-.21-.5-.34l-33.12-29.32c-1.3-1.15-3.29-1.04-4.45.25l-.16.17c-1.19,1.23-1.12,3.2.16,4.33l30.34,26.88c.24.2.43.46.56.74,3.86,7.95-4.18,15.66-12.15,11.71-.29-.15-.55-.33-.79-.54l-27.58-24.55c-1.3-1.15-3.29-1.02-4.42.3l-.18.22c-1.21,1.31-1.08,3.37.29,4.52,4.33,3.64,11.74,10.11,22.25,19.4,2.37,2.1,3.72,3.82,4.03,5.16.59,2.46.21,4.62-1.14,6.47-2.84,3.92-6.74,5.07-11.69,3.45-.2-.07-.38-.17-.54-.3l-6.98-5.99c-.38-.33-.64-.78-.74-1.28-.21-1.04.02-2.29-.4-3.39-2.47-6.35-7.13-9.8-13.98-10.34-.86-.07-1.53-.79-1.52-1.66.03-8.22-6.86-14.03-14.74-14.35-.79-.03-1.4-.69-1.38-1.48.04-1.65-.22-3.13-.78-4.44-3.14-7.31-8.71-10.63-16.72-9.94-.36.03-.69-.23-.76-.59-1.15-6.25-4.63-10.45-10.44-12.62-5.03-1.88-11.1-.53-14.44,3.33-2.45,2.82-4.26,4.88-5.43,6.17-.29.31-.64.45-1.06.42Z"/>
  <path class="cls-1" d="M76.78,199.34c-2.85,3.34-7.87,3.74-11.21.88l-.82-.7c-3.34-2.86-3.74-7.87-.88-11.21l7.64-8.94c2.85-3.33,7.87-3.73,11.21-.88l.82.7c3.34,2.86,3.74,7.87.88,11.21l-7.64,8.94Z"/>
  <path class="cls-1" d="M93.52,214.96c-2.99,3.33-8.12,3.59-11.44.6l-.71-.64c-3.33-2.99-3.6-8.12-.6-11.44l9.11-10.12c2.99-3.33,8.12-3.59,11.44-.6l.71.64c3.33,2.99,3.6,8.12.6,11.44l-9.11,10.12Z"/>
  <path class="cls-1" d="M110.03,230.27c-2.98,3.21-8.01,3.39-11.22.41l-.82-.76c-3.21-2.99-3.4-8.01-.41-11.22l8.85-9.52c2.98-3.21,8.01-3.39,11.22-.41l.82.76c3.21,2.99,3.4,8.01.41,11.22l-8.85,9.52Z"/>
  <path class="cls-1" d="M127.65,243.7c-2.96,3.16-7.91,3.33-11.07.37l-.57-.53c-3.16-2.96-3.32-7.91-.37-11.07l7.05-7.54c2.96-3.16,7.91-3.33,11.07-.37l.57.53c3.16,2.96,3.32,7.91.37,11.07l-7.05,7.54Z"/>
  <path class="cls-1" d="M177,32.03C167.7,10.11,142.33-.09,120.33,9.25c-22,9.33-32.28,34.67-22.98,56.59,9.3,21.92,34.67,32.12,56.67,22.78,22-9.33,32.28-34.67,22.98-56.59ZM161.35,38.55c-14.35,16.12-23.52,26.08-27.51,29.87-2.79,2.66-5.53,2.59-8.21-.2-7.61-7.93-12.07-12.62-13.39-14.06-.3-.32-.53-.7-.69-1.11-1.37-3.47-.48-6.04,2.66-7.71,2.53-1.35,4.93-.82,7.19,1.59,4.44,4.75,7.04,7.5,7.8,8.24.06.06.13.1.21.13.12.05.21.07.26.08.32.03.64-.09.88-.32,1.74-1.71,3.99-4.09,6.75-7.15,4.74-5.27,9.56-10.47,14.45-15.6,1.89-1.99,3.48-3.1,4.75-3.35,5.15-.98,8.45,5.55,4.85,9.59Z"/>
</svg>