<?xml version="1.0" encoding="UTF-8"?>
<svg id="Layer_1" data-name="Layer 1" xmlns="http://www.w3.org/2000/svg" viewBox="0 0 204.43 171.58">
  <defs>
    <style>
      .cls-1 {
        fill: #dc161f;
      }
    </style>
  </defs>
  <path class="cls-1" d="M188.06,42.09c-2.17-.09-7-.06-14.51.08-.39,0-.76.12-1.09.34-.93.61-1.53,1.61-1.78,3-.08.44-.69.51-.85.09-1.49-3.79-5.15-12.57-10.98-26.36-1.59-3.74-3.23-6.38-4.92-7.91-2.39-2.15-5.26-3.3-8.62-3.44-24.51-1.03-55.56-1.09-93.14-.19-9.38.22-13.1,4.17-16.35,12.55-.13.33-3.7,8.77-10.71,25.3-.18.42-.8.34-.86-.11-.28-2.21-1.43-3.32-3.45-3.33-6.33-.03-11.13-.01-14.39.05-.28.01-.54.08-.78.22-1.41.83-2.15,1.82-2.2,2.97-.16,3.67-.14,7.06.05,10.17.1,1.54,1,2.64,2.69,3.3.32.13.66.19,1,.19,2.84,0,6.69-.41,9.2,1.1.3.18.37.58.14.85-3.88,4.6-6.59,7.66-8.13,9.17-3.16,3.1-4.02,6.17-4.02,10.46.04,23.3.19,46.54.46,69.71.03,2.81.99,5.74,4.03,5.75,15.14.02,23.78,0,25.91-.07,3.42-.1,4.44-2.37,4.36-5.7-.03-1.53,0-6,.11-13.4.01-.29.25-.52.54-.52h66.4c.31,0,.54-.3.46-.6-3.89-15.79-2.17-31.69,6.87-45.06,8.46-12.51,20-20.03,34.63-22.57,14.01-2.43,30.02,1.61,40.76,11.14.37.33.97.09,1-.41.26-3.85-.9-5.88-3.71-8.97-2.68-2.95-5.27-5.78-7.76-8.5-.64-.7-.24-1.84.71-1.98,2.7-.41,5.64-.59,8.81-.54,1.79.02,3.01-.91,3.67-2.79.07-.21.11-.42.11-.63.04-3.18.07-6.05.08-8.62s-1.24-4.64-3.74-4.74ZM60,97.92c-18.72-.01-31.45,0-38.19.05-1.52.01-2.63-.77-3.31-2.36-.13-.28-.19-.59-.18-.9.2-4.77.24-8.21.12-10.32-.11-2.1,1.28-3.67,3.2-3.66,9.64.02,20.23,0,31.75-.04,1.71,0,3.18.67,4.43,2.01.08.08.13.17.17.28l4.26,11.73c.57,1.56-.59,3.21-2.25,3.21ZM159.54,54.31c-17.99.47-34.13.11-62.04.1-27.91-.01-44.04.34-62.03-.15-.41-.01-.68-.43-.52-.81,3.33-7.9,7.04-16.59,11.12-26.06,2.19-5.1,4.31-7,9.45-7.28,1.31-.08,15.31-.11,42-.1,26.68.01,40.68.05,41.99.13,5.14.29,7.26,2.19,9.45,7.29,4.07,9.47,7.77,18.16,11.1,26.07.16.38-.11.8-.52.81Z"/>
  <path class="cls-1" d="M155.63,76.56c-23.86.41-42.86,20.53-42.43,44.93.42,24.4,20.11,43.84,43.97,43.42,23.86-.41,42.86-20.53,42.43-44.93-.42-24.4-20.11-43.84-43.97-43.42ZM172.34,136.34c-1.97,4.57-5.59,7.5-10.88,8.78-.5.12-.85.56-.85,1.08v4.23c0,.76-.61,1.37-1.37,1.37h-6.26c-.68,0-1.24-.55-1.26-1.23l-.09-4.49c-.01-.34-.25-.62-.58-.69-.27-.05-1.41-.43-3.42-1.13-5.21-1.81-9.72-7.39-9.13-13.41.04-.43.4-.76.84-.76h8.63c.39,0,.72.28.79.66.43,2.29,1.69,3.9,3.79,4.81,3.11,1.37,8.14,1.16,9.73-2.27,2.96-6.4-4.97-7.8-9.67-9.02-4.88-1.26-11.19-4.21-12.66-9.58-2.11-7.65.25-13.39,7.06-17.2,1.21-.68,2.78-.95,4.07-1.49.38-.16.63-.52.63-.93v-4.34c0-.81.66-1.47,1.47-1.47h6.06c.72,0,1.3.58,1.3,1.3v4.66c0,.43.3.8.72.88,5.47,1.04,9.06,4.21,10.75,9.5.45,1.43.5,2.79.13,4.08-.11.38-.46.65-.86.65h-7.76c-.36,0-.68-.25-.77-.6-1-3.96-3.78-5.54-8.34-4.73-5.38.95-5.43,7.24-.56,9.14,4.54,1.79,12.44,2.56,16.89,7.94,3.18,3.83,3.7,9.36,1.6,14.26Z"/>
</svg>