<?xml version="1.0" encoding="UTF-8"?>
<svg id="Layer_1" data-name="Layer 1" xmlns="http://www.w3.org/2000/svg" viewBox="0 0 174.49 195.67">
  <defs>
    <style>
      .cls-1 {
        fill: #dc161f;
      }
      path:not(.cls-1) {
        fill: #fff;
      }
    </style>
  </defs>
  <path class="cls-1" d="M77.27,81.66l22.53,20.72c.28.26.31.69.06.99-4.59,5.38-8.12,9.74-10.57,13.07-3.79,5.17-7.19,9.65-10.2,13.45-11.97,15.15-27,33.51-45.09,55.06-2.66,3.17-6.06,5.19-10.21,6.04-13.66,2.82-24.42-9.55-20.46-22.52.75-2.45,3.02-5.97,6.81-10.56,18.9-22.93,36.27-43.63,54.56-63.16,3.46-3.69,7.24-8.02,11.34-13,.31-.38.87-.42,1.23-.09Z"/>
  <path d="M154.28,139.34c-.02-1.75-.5-3.06-1.45-3.91-6.93-6.27-15.24-9.97-24.93-11.11-.39-.05-2.59-.07-6.58-.07-3.99-.01-6.18.01-6.58.06-9.69,1.12-18.01,4.8-24.95,11.06-.95.85-1.43,2.15-1.46,3.9-.12,10.15-.14,22.75-.07,37.81,0,.28.11.54.3.74,8.76,9.06,20.14,13.54,32.69,13.55,12.56.01,23.95-4.45,32.73-13.49.19-.19.3-.45.3-.73.1-15.06.1-27.66,0-37.81ZM104.37,178.53c0,.25-.28.41-.5.28l-6.87-3.96c-.1-.06-.16-.17-.16-.29v-22.45c0-.25.28-.41.5-.28l6.87,3.96c.1.06.16.17.16.29v22.45ZM132.76,141.03c-3.29.13-7.07.21-11.36.24-4.29.03-8.07,0-11.36-.08-.32-.01-.63-.05-.93-.14-1.51-.44-3.05-1.32-4.64-2.63-.25-.21-.23-.6.04-.79,4.72-3.17,10.97-3.57,16.84-3.61,5.88-.04,12.13.27,16.89,3.38.27.19.3.58.05.79-1.57,1.33-3.1,2.23-4.6,2.69-.3.09-.61.14-.93.15ZM145.53,174.73c0,.13-.07.25-.19.32l-6.78,3.91c-.24.14-.55-.04-.55-.32v-22.82c0-.15.08-.28.22-.34l6.78-3.08c.24-.11.52.07.52.33v22Z"/>
  <g>
    <circle class="cls-1" cx="131.51" cy="41.1" r="13.23" transform="translate(9.45 105.03) rotate(-45)"/>
    <path class="cls-1" d="M166.97,30.12c-4.31-14.04-17.28-24.78-31.8-25.86-11.23-.83-20.72,2.46-28.45,9.89-4.36,4.19-7.39,8.14-9.09,11.87-3.74,8.18-9.73,21.63-17.96,40.36-1.38,3.13-2.02,6.29.39,8.45,13.78,12.36,21.75,19.57,23.9,21.62,2.29,2.19,4.77,3.33,7.57,1.51,20.3-13.25,33.93-22.12,40.89-26.61,13.53-8.75,19.19-26.11,14.55-41.23ZM112.83,71.35c-.21,3.94-3.63,6.96-7.64,6.74-4-.22-7.07-3.59-6.86-7.52.21-3.94,3.63-6.96,7.64-6.74,4,.22,7.07,3.59,6.86,7.52ZM131.49,61.01c-11.05,0-20.01-8.96-20.01-20.01s8.96-20.01,20.01-20.01,20.01,8.96,20.01,20.01-8.96,20.01-20.01,20.01Z"/>
  </g>
</svg>
