<?xml version="1.0" encoding="UTF-8"?>
<svg id="Layer_1" data-name="Layer 1" xmlns="http://www.w3.org/2000/svg" viewBox="0 0 231.25 210.07">
  <defs>
    <style>
      .cls-1 {
        fill: #f6a100;
      }
    </style>
  </defs>
  <path d="M151.11,100.88c-12.27-2.58-23.55-7.54-33.84-14.88-.39-.28-.79-.41-1.22-.41s-.83.13-1.22.41c-10.3,7.34-21.58,12.3-33.85,14.87-1.42.3-2.11,1.38-2.07,3.23.13,5.3.13,14.38,0,27.22-.04,4.1.24,7.24.84,9.42,4.64,17.11,19.2,29.86,33.99,38.48.87.51,1.64.76,2.3.76s1.43-.25,2.3-.76c14.79-8.62,29.35-21.36,34-38.47.59-2.19.87-5.33.84-9.42-.13-12.85-.13-21.92,0-27.22.05-1.85-.64-2.93-2.07-3.23ZM138.96,124.16c-11.17,11.58-19.65,20.33-25.46,26.24-2.48,2.53-5.42.71-7.6-1.47-4.53-4.55-8.05-8.07-10.54-10.57-2.14-2.14-3.37-4.45-1.99-7.16,1.44-2.83,5.76-5.33,8.52-2.82,3.42,3.13,6.11,5.73,8.07,7.81.27.29.73.29,1,.01l20.56-21.05c.07-.07.15-.13.24-.18,3.5-1.83,6.23-1.21,8.19,1.84,1.63,2.53,1.3,4.98-.99,7.35Z"/>
  <path class="cls-1" d="M227.31,182.7L130.11,13.5c-6.26-10.9-22-10.9-28.26,0L4.65,182.7c-6.24,10.87,1.6,24.42,14.13,24.42h194.4c12.53,0,20.37-13.55,14.13-24.42ZM163.05,131.66c-.01,7.19-1.15,13.4-3.4,18.64-7.5,17.42-24.03,31.9-41.08,39.97-.7.33-1.56.5-2.57.5s-1.88-.17-2.58-.51c-17.03-8.09-33.54-22.59-41.02-40.03-2.24-5.24-3.37-11.45-3.37-18.64.01-16.71.08-27.47.23-32.27.08-2.56,1.12-4.71,3.1-6.44.99-.87,3.19-1.6,6.57-2.17,12.68-2.14,23.39-8.17,34.03-15.71.77-.54,1.81-.81,3.12-.81s2.36.27,3.12.82c10.64,7.55,21.34,13.6,34.01,15.76,3.39.57,5.58,1.3,6.57,2.18,1.98,1.73,3.01,3.88,3.09,6.44.14,4.8.2,15.56.18,32.27Z"/>
</svg>