<?xml version="1.0" encoding="UTF-8"?>
<svg id="Layer_1" data-name="Layer 1" xmlns="http://www.w3.org/2000/svg" viewBox="0 0 195.67 161.79">
  <defs>
    <style>
      .cls-1 {
        fill: #dc161f;
      }
    </style>
  </defs>
  <path class="cls-1" d="M189.91,86.65c.36,0,.66.3.65.66-.09,20.47-.08,38.28.03,53.41.03,4.83-.42,8-1.36,9.53-3.1,5.02-7.08,6.04-13.28,6.04-10.43-.01-63.69,0-159.8.01-.09,0-.19-.01-.28-.03-7.22-1.46-10.83-5.94-10.84-13.45-.01-13.99-.03-32.39-.05-55.19-.01-.52.41-.94.93-.94h26.12c.22,0,.39.17.4.39.02.65.02,4.72-.01,12.21,0,1.02.78,1.96,2.37,2.83.09.05.19.07.3.07h24.47c.18,0,.37-.04.54-.11,1.52-.65,2.28-1.58,2.28-2.81.01-3.98.04-7.93.07-11.84.01-.44.36-.79.79-.79h69.86c.39,0,.71.32.71.72-.03,5.64-.02,9.48.05,11.53.05,1.57.79,2.64,2.21,3.21.26.1.53.15.81.15,14.79.03,22.77.02,23.93-.03,1.41-.07,2.39-.78,2.95-2.13.11-.26.17-.55.17-.84l.11-11.88c0-.4.33-.72.73-.72h25.14Z"/>
  <path class="cls-1" d="M190.58,55.72c-.02-3.71-.36-6.26-1.01-7.63-3.07-6.41-8.04-7.26-15.71-7.15-12.23.17-22.74.21-31.54.11-.32-.01-.57-.25-.59-.56-.21-3.76-.22-9.82-.03-18.17.1-4.65-.26-7.86-1.07-9.64-3.68-8.04-9.47-8.85-18.9-8.67-2.61.05-18.48.05-47.59.01-5.31-.01-8.72.3-10.24.93-7.31,3.02-9.07,9.18-8.88,17.45.11,4.8.07,10.76-.12,17.87-.01.3-.25.54-.55.55-8.79.23-20.03.29-33.73.17-3.89-.03-6.61.29-8.16.96-6.35,2.78-7.7,7.81-7.54,15.04.09,4.03.11,11.51.08,22.46,0,.24.2.44.44.44h26.28c.3,0,.55-.24.55-.54l.1-11.73c0-.2.04-.41.13-.59.63-1.43,1.54-2.19,2.75-2.29,1.81-.14,10.01-.14,24.6-.01.27.01.54.06.79.17,1.21.5,1.82,1.34,1.81,2.51-.03,4.36-.06,8.27-.09,11.72-.01.46.36.83.82.83h69.93c.41,0,.75-.33.75-.74v-11.37c0-1.7,1.37-3.08,3.07-3.09l24.23-.16c.2,0,.39.04.57.13,1.42.67,2.13,1.53,2.12,2.58-.04,6.56-.02,10.55.07,11.96.02.4.36.72.77.72h25.05c.34,0,.62-.27.64-.61.18-4.73.25-12.61.2-23.66ZM127.83,40.33c0,.27-.22.49-.49.49h-57.96c-.27,0-.49-.22-.49-.49v-16.05c0-2.68,2.1-4.86,4.68-4.86h49.58c2.58,0,4.68,2.18,4.68,4.86v16.05Z"/>
</svg>