<?xml version="1.0" encoding="UTF-8"?>
<svg id="Layer_1" data-name="Layer 1" xmlns="http://www.w3.org/2000/svg" viewBox="0 0 245.65 221.93">
  <defs>
    <style>
      .cls-1 {
        fill: #1e9e57;
      }
      path:not(.cls-1) {
        fill: #fff;
      }
    </style>
  </defs>
  <path d="M138.52,10.44c.5,1.16.11,2.51-.93,3.22-11.18,7.61-20.03,13.61-26.56,17.99-2.4,1.61-4.34,2.45-5.81,2.52-7.46.35-15.52-6.38-14.75-14.1.35-3.5,2.78-5.84,7.28-7.02,13.87-3.64,23.3-6.14,28.28-7.49,4.15-1.12,10.53.3,12.49,4.88Z"/>
  <path class="cls-1" d="M63.08,145.77c-.51-.52-.31-1.39.37-1.63,7.06-2.51,11.7-7.98,14.38-14.9.21-.54.76-.87,1.33-.79,12.42,1.69,22.76-8.13,22.18-20.54-.04-.84.45-1.6,1.23-1.9,2.25-.89,4.09-1.6,5.71-2.87,7.25-5.68,9.7-13.13,7.34-22.34-.22-.88.14-1.81.9-2.31,7.66-5.01,10.79-12.2,9.38-21.56-.95-6.31-5.98-9.82-10.91-13.45-3.25-2.39,3.24-6.35,5.4-7.78,3.67-2.45,11.68-7.86,24.02-16.23,2.93-1.99,5.69-3.06,8.28-3.21,8.21-.46,18.98-1.64,23.29,6.94,3.44,6.86-.38,12.3-4.06,18.16-.49.77.07,1.78.99,1.78h5.24c.15,0,.29.02.44.06,4.63,1.35,7.82,3.94,9.55,7.79,1.83,4.07,1.89,9.36-.55,13.52-.69,1.18-1.25,2.19-1.66,3.03-.33.67.05,1.47.78,1.64.43.1,1.39.25,2.88.44,9.32,1.2,12.33,11.95,9.03,19.42-.76,1.71-1.64,3.35-2.63,4.9-.57.88-.09,2.06.93,2.3,4.39,1.04,7.3,3.81,8.73,8.3,2.46,7.72-.31,15.81-6.02,21.41-10.68,10.45-23.8,23.45-39.37,39-3.77,3.77-5.75,5.72-5.93,5.84-1.97,1.29-4.64,1.92-8.02,1.9-3.36-.03-11.64-.04-24.83-.05-8.26-.01-13.35,1.52-19.09,6.68-2.8,2.51-5.05.46-7.16-1.61-14.5-14.27-25.22-24.91-32.15-31.94Z"/>
  <path d="M80.55,26.01c.91.17,1.67.8,2,1.66,1.28,3.35,2.31,6.25,5.86,8.43,4.33,2.67,11.84,7.64,22.53,14.91,2.83,1.92,4.55,3.55,5.17,4.9,2.39,5.2,1.32,11.4-3.95,14.55-3.65,2.19-7.21,2.19-10.68.02-10.21-6.41-20.53-13.01-30.98-19.82-2.12-1.38-7.14-3.14-7.73-6.81-.8-4.99,2.03-8.68,4.88-12.61,3.4-4.7,7.21-6.27,12.9-5.23Z"/>
  <path d="M105.32,93c-3.13,4.89-9.64,6.32-14.53,3.19l-37.24-23.81c-4.89-3.13-6.33-9.64-3.19-14.53l.53-.83c3.13-4.89,9.64-6.32,14.53-3.19l37.24,23.81c4.89,3.13,6.33,9.64,3.19,14.53l-.53.83Z"/>
  <path d="M90.09,115.41c-3.11,4.76-9.49,6.11-14.25,3l-31.72-20.68c-4.77-3.1-6.11-9.48-3-14.25l.58-.89c3.11-4.76,9.49-6.11,14.25-3l31.72,20.68c4.77,3.1,6.11,9.48,3,14.25l-.58.89Z"/>
  <path d="M66.66,131.09c-2.91,4.63-9.02,6.01-13.64,3.1l-17.79-11.2c-4.62-2.91-6.01-9.02-3.1-13.64l.67-1.07c2.91-4.63,9.02-6.01,13.64-3.1l17.79,11.2c4.62,2.91,6.01,9.02,3.1,13.64l-.67,1.07Z"/>
  <path d="M240.35,154.67c2.49,2.52,2.48,6.58-.03,9.08l-53,52.64c-2.52,2.49-6.58,2.48-9.08-.03l-23.82-23.98c-2.49-2.52-2.48-6.58.03-9.08l53-52.64c2.52-2.49,6.58-2.48,9.08.03l23.82,23.98Z"/>
  <path class="cls-1" d="M89.86,185.75c2.79,2.77,4.69,6.27,1.51,9.52-6.1,6.23-13.33,13.58-21.7,22.07-2.09,2.12-3.62,3.27-4.6,3.45-2.29.43-4.24-.13-5.92-1.79-19.15-18.79-37.15-36.52-53.98-53.17-4.26-4.22-3.27-7.12.51-10.91,6.55-6.58,13.52-13.59,20.9-21.03,1.71-1.73,3.58-2.07,5.59-1.03,3.52,1.81,6.73,3.65,9.63,5.51,1.68,1.07,4.38,3.49,8.1,7.26,16.05,16.23,29.37,29.61,39.96,40.12Z"/>
</svg>
