<?xml version="1.0" encoding="UTF-8"?>
<svg id="Layer_1" data-name="Layer 1" xmlns="http://www.w3.org/2000/svg" viewBox="0 0 221.93 168.56">
  <defs>
    <style>
      .cls-1 {
        fill: #dc161f;
      }
    </style>
  </defs>
  <path class="cls-1" d="M146.48,15.64c0,1.44-1.17,2.62-2.62,2.62l-67.2.12c-1.44,0-2.62-1.17-2.62-2.62l-.02-9.14c0-1.44,1.17-2.62,2.62-2.62l67.2-.12c1.44,0,2.62,1.17,2.62,2.62l.02,9.14Z"/>
  <circle class="cls-1" cx="111.64" cy="134.01" r="11.78" transform="translate(-62.06 118.19) rotate(-45)"/>
  <circle class="cls-1" cx="103.85" cy="69.69" r="8.45"/>
  <path class="cls-1" d="M217.75,86.21c-.39-10.49-2.25-22.03-5.56-34.64-.41-1.56-1.22-2.35-2.45-2.38-2.99-.07-7.83-.11-14.51-.13-1.3,0-2.36,1.06-2.36,2.36v8.85c0,.75-.63,1.34-1.38,1.3l-7.19-.45c-.68-.04-1.21-.6-1.21-1.28-.02-4.13,0-7.35.05-9.68.08-4.17-.67-6.52-4.92-7.16-.74-.11-4.58-.14-11.51-.07-.29,0-.58-.04-.86-.13-2.89-.88-4.2-3.02-5.93-5.16-.26-.32-.45-.7-.57-1.1-.37-1.29-1.25-4.04-2.65-8.26-.55-1.65-1.41-2.87-2.6-3.68-.93-.63-2.39-.95-4.39-.95-48.37-.02-78.22-.02-89.55,0-5.95.01-9.34-.62-10.98,5.23-.54,1.97-.5,5-1.63,7.2-1.69,3.29-4.04,5.52-7.03,6.69-.21.09-.44.13-.66.14l-8.54.16c-.25.01-.5.07-.72.18-1.99,1.05-2.98,2.39-2.97,4.02.05,5.85.01,9.73-.13,11.64-.11,1.52-1.41,2.66-2.93,2.57l-7.45.08c-1.2-.07-2.14-1.06-2.16-2.27-.06-4.31-.05-7.72-.04-9.19.06-5.09-5.06-3.97-8.75-3.83-.31.01-.62.11-.89.27-1.03.65-1.55,1.54-1.56,2.67-.1,14.87-.08,35.98.06,63.31.01,1.05.86,1.9,1.91,1.9h7.47c.88,0,1.6-.68,1.66-1.56l.23-3.82c.06-.96.85-1.71,1.81-1.71h8.13c1.32,0,2.41,1.05,2.45,2.37.16,4.44.16,11.19,0,20.25-.03,1.44.39,2.61,1.26,3.5,3.33,3.47,6.8,7.24,10.4,11.31,1.1,1.25,2.57,2.13,4.17,2.11,10.29-.08,16.76-.12,19.42-.12.3,0,.59.14.79.37l12.82,15.3c1.01,1.21,2.49,1.92,4.06,1.95,8.14.15,19.11.19,32.9.14,28.61-.13,50.19-.15,64.74-.08,2.43.01,4.13-1.41,5.1-4.26.03-.07.04-.14.04-.21v-23.09c0-.54.46-.97,1-.94l7.8.48c.5.03.89.44.9.94.03,4.57.03,7.26-.01,8.09-.1,2.36.98,3.08,3.19,3.09,6,0,10.48-.07,13.43-.26,1.39-.09,2.3-.81,2.73-2.18,2.71-8.66,4.4-17.12,5.08-25.39.82-10.01.98-21.51.49-34.5ZM27.62,89.63c0,2.78-2.26,5.03-5.04,5.02h-2.72c-2.78-.01-5.02-2.26-5.02-5.04l.02-10.22c0-2.78,2.26-5.03,5.04-5.02h2.72c2.78.01,5.02,2.26,5.02,5.04l-.02,10.22ZM56.69,121.87c-5.22,0-9.46-4.24-9.46-9.46s4.24-9.46,9.46-9.46,9.46,4.24,9.46,9.46-4.24,9.46-9.46,9.46ZM141.13,79.8c0,1.47-1.19,2.66-2.66,2.66h-5.44c-.57,0-1.12-.21-1.54-.6l-3.52-3.23c-.76-.7-1.76-1.09-2.8-1.09h-5.25c-.54,0-1.06.23-1.42.62l-3.8,4.12c-.27.29-.38.69-.32,1.08l4.47,26.83c.16.96.78,1.78,1.66,2.19,3.31,1.53,7.39,4.33,9.72,8.28l3.22.19,1.51,2.92-.99,2.59c.66,1.88,1.59,3.61,1.8,6.85.25,4.03-.37,6.82-1.98,10.79l.98,3.11-1.98,2.92-3.58-.47c-6.79,6.41-15.42,9.48-24.65,6.85-.87-.25-2.86-1.15-5.98-2.7l-2.69,1.21-3.13-2.56.47-2.68c-2.46-3.21-4.08-6.71-4.87-10.51l-.56-4.77-2.45-2.34.51-3.96,3.07-1.41c1.75-4.01,4.66-7.79,8.46-11.38,1.04-.99,1.46-2.28,1.26-3.88-1.25-9.78-2.37-18.61-3.36-26.48-.08-.66-.39-1.27-.88-1.71l-4.38-4.95c-.52-.49-1.22-.73-1.94-.69l-7.62.05-3,3.91c-.43.56-1.1.89-1.81.89-2.22,0-7-.01-7.26-.05-1.12-.17-1.86-1.29-1.86-2.43v-25.69c0-.33.26-.59.59-.59h73.26c.4,0,.72.32.72.72v25.39ZM141.13,47.99c0,.3-.25.55-.55.55h-73.58c-.3,0-.55-.25-.55-.55v-4.86c0-2.88,2.44-5.21,5.46-5.21h63.76c3.02,0,5.46,2.33,5.46,5.21v4.86ZM158.11,121.71c-5.15,0-9.33-4.18-9.33-9.33s4.18-9.33,9.33-9.33,9.33,4.18,9.33,9.33-4.18,9.33-9.33,9.33ZM192.98,106.03c0,1.27-1.03,2.3-2.3,2.29h-5.28c-1.27-.01-2.3-1.04-2.3-2.31l.03-16.87c.01-1.73,1.33-3.13,2.97-3.12h3.96c1.63.01,2.96,1.41,2.95,3.14l-.03,16.87Z"/>
</svg>