<?xml version="1.0" encoding="UTF-8"?>
<svg id="Layer_1" data-name="Layer 1" xmlns="http://www.w3.org/2000/svg" viewBox="0 0 201.6 174.49">
  <defs>
    <style>
      .cls-1 {
        fill: #dc161f;
      }
    </style>
  </defs>
  <path class="cls-1" d="M131.64,40.52c.07-2.48-.69-3.61-3.27-3.33-.91.09-2.95.06-6.12-.09-.34-.02-.64-.22-.77-.53l-2.87-6.3c-.13-.28-.09-.61.1-.85l3.85-5.04c.57-.75.48-1.81-.21-2.44l-8.99-8.27c-.48-.44-1.2-.5-1.75-.14l-5.73,3.75c-.13.09-.3.1-.44.04l-7.04-3.25c-.35-.16-.55-.54-.49-.92l.72-4.8c.2-1.3-.72-2.51-2.03-2.66l-11.72-1.38c-.11,0-.23,0-.34.01-3.29.58-2.7,4.6-3.43,7.02-.08.27-.31.46-.58.53l-6.39,1.61c-.4.1-.82-.07-1.04-.41l-3.22-4.92c-.53-.8-1.58-1.05-2.41-.57l-9.34,5.39c-1.04.6-1.45,1.89-.95,2.98l2,4.39c.15.33.08.72-.16.99l-3.34,3.62c-.26.29-.67.4-1.04.27l-5.4-1.82c-.95-.32-1.99.12-2.42,1.04l-4.66,10.11c-.39.84-.08,1.84.71,2.32l4.8,2.92c.27.16.42.48.37.8l-.95,6.24c-.04.27-.24.48-.5.55l-5.31,1.34c-1.24.31-2.03,1.52-1.82,2.77l1.79,10.76c.14.86.89,1.49,1.76,1.49h6.03c.23,0,.45.13.56.33l2.88,4.98c.14.24.12.54-.05.76l-3.28,4.29c-.31.4,9.37,12.11,9.37,12.11.32.24.78.2,1.06-.1l4.26-4.63c.3-.33.78-.4,1.16-.18l5.63,3.25c.27.16.42.47.37.78l-.88,5.83c-.05.36.21.69.58.72l11.87,2.79c.81.21,1.62-.3,1.79-1.12.39-1.91,1-5.02,1-5.47.01-.3.24-.55.54-.57l6.12-.46c.39-.03.76.19.92.55l2.24,4.92c.34.75,1.19,1.13,1.97.87,3.57-1.17,6.99-2.66,10.27-4.46,1.13-.61,1.43-1.6.9-2.96-.53-1.35-.96-2.57-1.29-3.67-.09-.31.02-.65.28-.86l5.94-4.56c.17-.13.4-.15.59-.06l5.31,2.44c.85.39,1.86.09,2.34-.71l6.25-10.27c.45-.74.27-1.7-.42-2.22l-4.61-3.53c-.34-.26-.5-.7-.4-1.11l1.4-6.18c.08-.37.37-.65.74-.71l5.7-.95c1.08-.18,1.87-1.14,1.82-2.24-.25-6.11-.36-9.72-.33-10.82ZM85.46,70.59c-11.36,0-20.57-9.21-20.57-20.57s9.21-20.57,20.57-20.57,20.57,9.21,20.57,20.57-9.21,20.57-20.57,20.57Z"/>
  <path d="M77.21,120.81c-1.89-.72-3.4-1.4-4.53-2.03-.32-.18-.51-.52-.51-.89v-3.45c0-.25.12-.48.33-.62l4.2-2.75c.73-.48,1.11-1.37.89-2.22-.53-2.08-1.59-4.59-3.18-7.51-1.49-2.73-3.42-.73-5.7.21-.4.17-2.03-2.55-2.36-2.83l1.59-4.57c.12-.36,0-.75-.31-.97-1.53-1.09-5.99-4.24-6.6-4.29-.47-.04-.92.14-1.35.55-1.85,1.75-3.26,3.02-4.21,3.77-.25.2-.56.28-.88.24l-3.85-1.56c-.67-.48-1.01-1.29-.89-2.11l1.07-7.04c.12-.83-.33-1.65-1.1-2-3.87-1.74-7.96-2.33-12.25-1.77-.41.05-.74.38-.8.79l-.9,5.91c-.04.24-.22.44-.46.5l-5.25,1.32c-.36.09-.74-.05-.94-.36l-2.83-4.32c-.27-.42-.82-.57-1.27-.35-4.27,2.1-7.7,4.38-10.29,6.84-.7.66-.83,1.74-.29,2.54l2.61,3.97c.17.27.17.61-.01.86l-3.57,5.18c-.26.37-.71.57-1.16.5l-4.42-.67c-1.18-.18-2.3.56-2.61,1.71-.97,3.65-1.74,7.05-2.33,10.2-.41,2.25.07,3.1,2.27,3.57.23.05,1.51.41,3.86,1.1.3.09.52.34.56.65l.79,6.24c.03.25-.08.5-.29.64l-4.86,3.18c-.52.34-.74.99-.52,1.57,1.44,3.87,3.43,7.7,5.98,11.48.36.54,1.06.74,1.66.47l5.32-2.42c.16-.07.34-.05.48.05l5.9,4.52c.26.2.38.54.31.86l-1.17,5.17c-.22.98.33,1.98,1.29,2.3l11.25,3.8c.96.33,2-.19,2.33-1.16l1.79-5.3c.12-.35.43-.61.8-.65l7.18-.92c.28-.03.55.1.71.33l3.39,5.18c.53.81,1.62,1.03,2.43.5l10.02-6.57c.75-.48,1.03-1.44.66-2.26l-2.1-4.62c-.09-.2-.07-.43.07-.61l4.41-5.77c.21-.28.57-.4.91-.33l4.56,1.03c1.05.24,2.11-.33,2.48-1.34,1.47-3.99,2.49-7.53,3.04-10.63.25-1.46-.2-2.41-1.35-2.85ZM40.96,134.65c-9.2,0-16.65-7.45-16.65-16.65s7.45-16.65,16.65-16.65,16.65,7.45,16.65,16.65-7.45,16.65-16.65,16.65Z"/>
  <path class="cls-1" d="M199.09,116.01c-.03-1.34-1.08-2.44-2.41-2.52l-5.74-.35c-.34-.02-.64-.25-.74-.57l-1.3-4.02c-.13-.39-.12-.81.03-1.19l5.51-3.94c1.15-.82,1.41-2.42.59-3.57l-6.27-8.37c-.77-.55-1.83-.44-2.46.26l-5.14,3.46c-.36.4-.97.45-1.4.12l-5.36-4.09c-.26-.2-.39-.53-.35-.86.09-.69.46-2.13,1.1-4.34.47-1.64.01-2.79-1.39-3.45-5.4-2.54-9.46-4.33-12.15-5.41-.81-.32-1.73-.04-2.22.68l-2.99,4.34c-.19.28-.51.43-.84.41l-5.07-.31c-.32-.02-.59-.22-.71-.51-.43-.99-.76-2.47-.99-4.44-.21-1.73-.98-3.25-2.8-3.13-4.22.27-12.68.8-15.68,3.83-.17.17-.26.41-.24.66l.51,6.21c.03.31-.13.61-.4.77l-7.09,4.09c-.27.16-.61.14-.87-.04l-4.79-3.31c-.79-.54-1.85-.46-2.55.19-3.44,3.2-6.64,6.88-9.6,11.04-.4.55-.32,1.32.18,1.78l4.41,4.06c.34.31.45.81.26,1.23l-2.64,6.1c-.12.26-.37.43-.66.43h-7.32c-.86,0-1.64.55-1.92,1.37-1.38,4.08-.99,6.87-1.01,13.4-.01,3.14.75,4.49,3.96,4.62,2.41.1,4.09.19,5.04.27.33.03.6.25.7.56l2.07,6.4c.08.24.02.51-.15.69l-4.4,4.79c-.62.67-.7,1.67-.2,2.43l7.01,10.69c.67,1.03,2.02,1.35,3.09.74l5.18-3c.26-.15.58-.13.82.04l5.37,3.7c.31.21.46.59.38.95l-1.32,5.82c-.21.96.29,1.94,1.19,2.32,3.92,1.65,8.19,2.98,12.8,3.99,2.16.46,2.7-.46,3.37-2.22.37-.99.94-2.31,1.7-3.96.13-.29.43-.48.76-.48h7.16c.47,0,.88.29,1.04.73l1.73,4.75c.45,1.23,1.78,1.88,3.02,1.48l12.41-4.02c1.33-.43,2.15-1.78,1.92-3.16l-.78-4.71c-.1-.59.12-1.19.58-1.57l6.41-5.37c.1-.08.22-.12.34-.13l6.75,3.06c.44-.01.85-.18,1.16-.5,1.33-1.36,7.68-8.11,7.34-10.26-.41-2.67-2.87-5.51-3.67-6.94-.31-.51-.42-1.12-.29-1.7l1.02-4.62c.11-.51.54-.88,1.06-.92.05,0,1.51-.09,4.37-.26,2.55-.16,3.72-.86,3.7-3.44-.04-5.59-.08-9.18-.12-10.79ZM147.81,143.12c-10.8,0-19.56-8.76-19.56-19.56s8.76-19.56,19.56-19.56,19.56,8.76,19.56,19.56-8.76,19.56-19.56,19.56Z"/>
</svg>