<?xml version="1.0" encoding="UTF-8"?>
<svg id="Layer_1" data-name="Layer 1" xmlns="http://www.w3.org/2000/svg" viewBox="0 0 204.14 203.29">
  <defs>
    <style>
      .cls-1 {
        fill: #dc161f;
      }
    </style>
  </defs>
  <path d="M81.91,54.7c.78-1.46,1.79-2.8,3.04-4.03,9.47-9.33,19.65-19.39,30.53-30.16,4.38-4.34,8.12-7.42,11.22-9.25,4.89-2.89,9.3-4.9,13.24-6.03,13.15-3.79,25.47-2.67,36.97,3.34,25.6,13.38,30.51,45.43,16.48,68.79-2.62,4.36-6.97,9.42-13.05,15.17-2.63,2.48-11.68,11.47-27.16,26.97-6.76,6.77-12.12,11.27-16.09,13.52-23.58,13.38-53.51,7.53-66.56-17.35-.49-.93-.32-2.07.41-2.82,4.5-4.62,9.17-10.4,15.84-10.85,2.87-.19,3.58.26,5.28,2.71,5.88,8.49,16.87,13.06,26.94,9.56,4.43-1.54,7.96-3.61,10.58-6.22,20.75-20.67,33.29-33.13,37.63-37.37,5.27-5.14,8.78-11.59,9.17-18.25.88-14.78-11.34-25.97-25.99-24.26-8.3.97-12.32,5.33-18.96,11.86-3.05,3-9.64,9.45-19.75,19.34-.44.43-1.09.58-1.67.37-8.62-3.06-17.65-4.22-27.08-3.48-.84.06-1.42-.82-1.02-1.56Z"/>
  <path class="cls-1" d="M117.48,150.39c.84-.03,1.32.95.78,1.59-1.22,1.46-2.29,2.64-3.22,3.55-11.35,11.09-19.72,19.39-25.13,24.9-5.85,5.97-10.67,10.08-14.45,12.34-12.16,7.26-27.69,9.67-41.08,5.08C13.49,190.69.38,169.83,2.64,147.55c.76-7.47,3.1-14.66,7.01-21.55,1.94-3.43,6.33-8.51,13.16-15.26,12.65-12.49,20.22-20.04,22.72-22.63,6.27-6.5,11.28-10.89,15.03-13.17,23.59-14.33,53.72-9.78,68.86,14.26,1.13,1.78,1.05,3.34-.24,4.68-2.29,2.37-5.05,5.03-8.29,7.97-2.96,2.69-6.41,3.64-10.34,2.85-.5-.1-.94-.38-1.24-.79-1.92-2.64-3.35-4.71-5.34-6.29-11.47-9.13-24.5-7.62-34.87,2.48-13.42,13.06-25.31,24.83-35.67,35.31-2.34,2.37-4.22,5.54-5.15,8.9-2.62,9.45-.73,17.48,5.68,24.11,7.47,7.74,17.78,8.7,27.29,4.31,2.31-1.07,4.87-3.08,7.66-6.02,3.05-3.21,9.63-9.76,19.76-19.63.44-.43,1.09-.55,1.65-.32,8.98,3.68,17.45,3.98,27.16,3.63Z"/>
</svg>