<?xml version="1.0" encoding="UTF-8"?>
<svg id="Layer_1" data-name="Layer 1" xmlns="http://www.w3.org/2000/svg" viewBox="0 0 257.51 145.69">
  <defs>
    <style>
      .cls-1 {
        fill: #1e9e57;
      }
    </style>
  </defs>
  <path d="M64.13,36.46l-1.31,21.27c-.02.39-.34.69-.74.69H17.36c-.45,0-.8-.4-.73-.85l3.22-21.27c.06-.36.37-.63.74-.63h42.8c.43,0,.77.36.74.79Z"/>
  <path d="M137.27,58.44h-63.53c-.44,0-.79-.37-.76-.81l1.3-21.05c.03-.51.45-.91.96-.91h53.4c.26,0,.48.2.5.47.18,2.35.93,5.19,2.25,8.54,1.72,4.34,3.84,8.66,6.35,12.95.21.36-.05.81-.47.81Z"/>
  <path d="M239.21,58.02c.03.19-.12.37-.31.37h-44.4c-.37,0-.69-.27-.75-.63-.36-2.07-.98-3.6.32-5.88,2.83-5,4.77-10.25,5.8-15.75.05-.26.27-.45.53-.45h33.81c.74,0,1.37.54,1.49,1.27l3.51,21.07Z"/>
  <path d="M62.71,70.28l-1.85,30.1c-.02.38-.34.68-.72.68H10.94c-.44,0-.78-.39-.71-.83l4.56-30.1c.05-.35.35-.61.71-.61h46.49c.42,0,.75.35.72.76Z"/>
  <path d="M73.01,69.81c.01-.15.14-.27.29-.27h72.45c.21,0,.41.12.51.31,3.11,5.69,6.79,11.16,11.04,16.41,2.88,3.56,8.11,4.04,11.87,1.91,1.09-.62,2.49-2.18,4.21-4.67,4.19-6.08,7.23-10.56,9.11-13.43.78-1.19,2.62-.76,2.8.65l3.75,29.56c.06.43-.28.81-.71.81h-116.35c-.48,0-.87-.4-.84-.88l1.87-30.4Z"/>
  <path d="M199.22,100.54l-3.85-30.28c-.05-.38.25-.71.63-.71h44.69c.3,0,.57.22.62.53l5.03,30.28c.06.38-.23.73-.62.73h-45.88c-.31,0-.58-.24-.62-.55Z"/>
  <path d="M61.08,112.75l-1.63,26.45c-.05.73-.64,1.29-1.37,1.29H5.75c-.83,0-1.48-.75-1.35-1.58l4.01-26.45c.1-.67.68-1.16,1.36-1.16h49.94c.79,0,1.42.67,1.37,1.45Z"/>
  <path d="M248.4,112.03l4.38,26.33c.19,1.14-.68,2.18-1.84,2.18h-45.59c-.71,0-1.31-.53-1.4-1.23l-3.46-27.24c-.05-.42.28-.79.7-.79h46.33c.44,0,.81.32.88.75Z"/>
  <path d="M69.45,139.38l1.66-27.03c.03-.56.5-1,1.06-1h117.03c.53,0,.98.4,1.05.93l3.43,27.03c.08.63-.41,1.19-1.05,1.19h-122.12c-.61,0-1.1-.52-1.06-1.12Z"/>
  <path class="cls-1" d="M187.96,15.54c-4.92-8.31-14.02-13.45-23.68-13.45s-18.76,5.12-23.69,13.43c-4.68,7.9-5.22,16.67-1.6,26.32,1.02,2.71,3.48,7.35,7.38,13.9,5.58,9.36,10.78,17.47,15.6,24.32.49.7,1.25,1.05,2.28,1.05s1.79-.35,2.28-1.05c4.83-6.85,10.03-14.95,15.62-24.31,3.91-6.55,6.37-11.18,7.39-13.89,3.63-9.65,3.1-18.42-1.58-26.32ZM164.13,40.76c-6.13,0-11.1-4.97-11.1-11.1s4.97-11.1,11.1-11.1,11.1,4.97,11.1,11.1-4.97,11.1-11.1,11.1Z"/>
</svg>