<?xml version="1.0" encoding="UTF-8"?>
<svg id="Layer_1" data-name="Layer 1" xmlns="http://www.w3.org/2000/svg" viewBox="0 0 221.08 149.93">
  <defs>
    <style>
      .cls-1 {
        fill: #dc161f;
      }
    </style>
  </defs>
  <path class="cls-1" d="M190.38,40.46c-.91-1.65-1.93-2.47-3.04-2.47-6.79.01-11.33.03-13.62.06-.32.01-.63.07-.93.19-.79.32-1.48.86-2.06,1.62-.25.32-.75.25-.89-.13-3.64-9.31-7.46-18.57-11.46-27.76-2.14-4.91-5.99-7.54-11.54-7.87-3.83-.23-7.49-.34-10.99-.34-42.45-.01-69.64-.01-81.57-.02-.45,0-1.35.07-2.68.2-2.4.25-4.36-.05-6.7.75-3.97,1.37-6.67,3.77-8.09,7.22-3.31,8.02-7.2,17.37-11.66,28.06-.12.29-.51.32-.68.06-.59-.91-1.27-1.53-2.03-1.86-.27-.12-.56-.18-.86-.18-6.66-.03-10.73-.08-12.21-.16-5.76-.32-4.6,5.13-4.54,9.77.02,1.99.72,3.85,2.8,3.89,3.99.08,7.34-.28,10,1.75.19.14.2.41.03.57-3.27,3.05-6.32,5.89-9.17,8.5-2.3,2.11-3.48,4.74-3.53,7.89-.13,7.63-.16,18.47-.11,32.5.02,4.83.14,8.3.35,10.41.08.82.28,1.62.59,2.38l1.17,2.88c.06.14.09.28.1.43.2,4.17.23,8.75.1,13.75-.1,3.73.4,6.83,4.47,7,3.66.15,11.82.13,24.47-.06,2.27-.03,3.82-1.14,4.63-3.32.1-.27.15-.56.14-.85l-.23-12.23c-.01-.21.16-.38.37-.38h105.46c.35,0,.61-.33.52-.66l-6.75-26.9c-.08-.32-.37-.55-.7-.55-1.47,0-3.34.02-5.59.05-4.58.06-6.18-2.61-4.29-7.03,1.13-2.66,2.29-6.02,3.48-10.09.09-.3.22-.58.39-.83,2.28-3.29,5.86-2.28,9.42-2.52.33-.02.6-.26.68-.58,1.44-6.19,1.98-11.34,6.54-14.31.35-.23.45-.71.22-1.06-1.81-2.74-3.91-5.44-4.03-8.17-.01-.11-.08-.2-.18-.23l-8.41-1.94c-.13-.03-.26-.04-.39-.04l-101.55-.14c-.37,0-.62-.38-.47-.71l11.45-26.44c.15-.35.36-.68.62-.96,1.87-2.09,4.52-3.14,7.94-3.16,23.44-.12,51.52-.13,84.23-.03,5.05,0,7.37,1.8,9.57,6.51,4.69,10.07,7.24,15.79,7.65,17.16.16.54.67.89,1.23.85,5.8-.43,10.28,1.78,13.43,6.65,1.09,1.69,1.82,2.76,2.18,3.22.24.3.64.42,1,.3,1.25-.42,3.91-1.01,8-1.78,2.17-.4,4.17-.01,6,1.17.82.53,1.91-.06,1.91-1.04v-8.25c0-.26-.07-.52-.19-.74ZM55.58,74.38c1.74-.01,3.25.68,4.52,2.05.08.08.14.17.17.28l4.36,11.98c.58,1.59-.6,3.28-2.3,3.28-19.11-.01-32.1,0-38.99.06-1.55,0-2.68-.79-3.38-2.41-.13-.29-.19-.6-.18-.92.2-4.87.24-8.38.12-10.53-.12-2.15,1.3-3.75,3.26-3.74,9.85.02,20.65,0,32.42-.05Z"/>
  <path class="cls-1" d="M216.94,124.73c-4.31-19-8.01-34.84-11.08-47.51-.53-2.16-1.33-3.7-2.4-4.63-5.01-4.35-10.17-9.02-15.5-13.99-.94-.87-2.16-1.53-3.65-1.98-.12-.04-.26-.05-.4-.02l-6.7,1.11c-.61.1-.91.8-.57,1.31,1.07,1.63,1.01,2.63-.16,3.01-3.83,1.26-4.96,0-6.63-3.44-2.38-4.95-6.18-11.58-11.96-10.49-3.5.67-5.81,3.56-2.92,6.56.39.4,1.46.47,3.2.21.67-.1,1.34.17,1.74.71,1.56,2.09,2.87,4.4,3.94,6.91,1.65,3.87,4.63,7.25,8.49,7.41,1.19.05,2.18-.17,2.99-.64,1.16-.69,2.6.33,2.44,1.72-.25,2.22-1.63,3.64-4.16,4.26-7.25,1.78-13.92-3.66-15.57-10.52-.12-.49-.66-.75-1.11-.53-2.92,1.45-3.9,3.1-4.61,6.55-.8,3.89-2,8.66-3.61,14.32-.85,3-1.11,5.29-.79,6.86.93,4.58,4.61,20.48,11.04,47.69.97,4.14,2.51,5.53,6.06,6.98,1.24.51,3.61.35,7.11-.48,7.88-1.86,20.2-4.54,36.95-8.05,4.05-.85,6.55-2.11,8.16-5.72.63-1.42.53-3.96-.3-7.61ZM190.48,125.63c-.28.17-.42.49-.37.81l.59,3.54c.1.6-.3,1.16-.9,1.26l-4.59.76c-.55.09-1.08-.28-1.17-.83l-.53-3.19c-.06-.36-.37-.62-.73-.61-5.87.14-10.68-2.77-12.01-8.69-.1-.46.2-.9.66-.98l6.09-1.02c.29-.05.59.09.73.35,1.79,3.2,4.58,4.02,8.39,2.45,1.3-.53,2.14-1.34,2.52-2.41,1.55-4.35-2.34-6.27-5.93-6.1-7.48.36-14.51-1.21-15.93-10-.81-5.1,2.39-9.53,6.79-11.81.32-.16.49-.51.43-.86l-.54-3.28c-.12-.71.35-1.37,1.06-1.49l4.05-.67c.53-.09,1.05.22,1.22.74l1.07,3.3c.13.39.48.65.89.66,5.55.05,9.12,2.69,10.72,7.94.11.37-.1.76-.47.88l-5.67,1.84c-.4.12-.83-.03-1.05-.38-5.03-7.77-16.13,2.33-6.94,5.24.61.19,1.43.27,2.46.26,7.95-.11,15.29.85,16.24,10.59.6,6.07-2.44,8.88-7.08,11.7Z"/>
</svg>