<?xml version="1.0" encoding="UTF-8"?>
<svg id="Layer_1" data-name="Layer 1" xmlns="http://www.w3.org/2000/svg" viewBox="0 0 221.08 202.45">
  <defs>
    <style>
      .cls-1 {
        fill: #f6a100;
      }
    </style>
  </defs>
  <path class="cls-1" d="M109.94,3.06c5.98-.01,11.1.36,15.35,1.09,5.4.93,5.81,4.51,5.79,9.77-.05,18.53-.07,44.31-.05,77.34,0,2.82-.45,5.17,2.47,6.59.26.13.55.21.84.24,1.13.12,2.75.11,4.87-.02,2.27-.15,3.43-1.43,3.5-3.86.51-18.41,1.01-43.67,1.5-75.76.02-.79.64-1.43,1.43-1.48.48-.03,1.11.14,1.9.52,33.3,16.15,53.2,50.11,54.24,86.73.1,3.61.14,8.64.11,15.09,0,.52.39.96.91,1.01,2.74.29,7.15-.23,9.48,1.24,2.25,1.41,3.37,3.64,3.38,6.68.01,6.94,1.29,15.04-5.35,16.82-2.05.55-6.25,1.08-12.58,1.59-18.09,1.46-37.41,2.27-57.95,2.43-1.79.01-11.71.02-29.78.03-18.07,0-28,0-29.78-.01-20.54-.14-39.86-.94-57.95-2.38-6.34-.5-10.53-1.03-12.59-1.58-6.64-1.78-5.36-9.88-5.36-16.82.01-3.04,1.13-5.27,3.38-6.68,2.33-1.47,6.74-.96,9.48-1.25.51-.05.91-.49.91-1.01-.04-6.45,0-11.48.09-15.09,1.02-36.62,20.89-70.6,54.18-86.77.78-.38,1.42-.56,1.9-.52.79.04,1.41.69,1.43,1.48.52,32.09,1.03,57.34,1.56,75.76.06,2.42,1.23,3.71,3.5,3.85,2.12.13,3.74.14,4.87.02.29-.03.57-.12.84-.24,2.92-1.42,2.47-3.77,2.46-6.59,0-33.04-.04-58.82-.11-77.34-.02-5.26.39-8.84,5.79-9.78,4.25-.73,9.36-1.1,15.34-1.1Z"/>
  <path class="cls-1" d="M110,177.97c15.51.01,30.31-.02,43.24-1.94,6.59-.97,11.74-4.13,15.45-9.47,1.59-2.3,2.86-7.59,7.25-8.01,3.61-.35,11.29-.94,23.05-1.77,1.57-.11,2.41.66,2.54,2.33.36,4.63.79,9.85-2.47,13.39-6.49,7.05-14.15,14.86-20.52,19.44-5.97,4.29-13.15,6.72-21.56,7.27-15.88,1.04-31.55,1.56-46.99,1.55-15.45,0-31.11-.54-47-1.6-8.4-.56-15.58-3-21.55-7.3-6.36-4.58-14.01-12.4-20.49-19.46-3.26-3.54-2.82-8.76-2.46-13.39.13-1.67.98-2.44,2.54-2.33,11.76.85,19.44,1.45,23.05,1.8,4.39.42,5.65,5.71,7.24,8.02,3.7,5.34,8.85,8.5,15.44,9.49,12.93,1.93,27.73,1.97,43.24,1.98Z"/>
</svg>