<?xml version="1.0" encoding="UTF-8"?>
<svg id="Layer_1" data-name="Layer 1" xmlns="http://www.w3.org/2000/svg" viewBox="0 0 195.67 171.95">
  <defs>
    <style>
      .cls-1 {
        fill: #dc161f;
      }
    </style>
  </defs>
  <path class="cls-1" d="M136.39,27.79c-.45,0-.81-.36-.81-.81V10.2c0-1.88,1.52-3.41,3.4-3.41h21.96c1.88,0,3.4,1.53,3.4,3.41v16.78c0,.45-.36.81-.81.81h-27.14Z"/>
  <path class="cls-1" d="M35.13,27.75c-.51,0-.92-.41-.92-.92V9.94c0-1.72,1.51-3.11,3.37-3.11h22.26c1.86,0,3.37,1.39,3.37,3.11v16.89c0,.51-.41.92-.92.92h-27.16Z"/>
  <path d="M8.69,54.28c-.57,0-1.04-.47-1.04-1.04v-10.14c0-5.27,4.39-9.54,9.8-9.54h163.58c5.41,0,9.8,4.27,9.8,9.54v10.14c0,.57-.47,1.04-1.04,1.04H8.69Z"/>
  <path class="cls-1" d="M190.66,151.53c-.04-1.63-.04-31.79,0-90.46,0-.3-.25-.55-.55-.55-26.81-.06-57.18.04-90.92.04s-64.11-.1-90.91-.05c-.31,0-.55.25-.55.55.03,58.68.03,88.83-.01,90.46-.13,5.64.3,9.33,1.29,11.06,1.89,3.28,5.07,4.92,9.53,4.93,7.06.02,33.94.03,80.65.03s73.59-.01,80.65-.02c4.46,0,7.64-1.66,9.53-4.93.99-1.73,1.42-5.42,1.29-11.06ZM69.04,101.61c-.04.35-.34.61-.68.61l-12.79.03c-.2,0-.36.16-.36.36l-.03,13.12c0,.28-.21.52-.49.54-.19.02-1.89.03-5.09.03s-4.91-.01-5.09-.03c-.28-.02-.5-.26-.5-.54l-.03-13.12c-.01-.2-.17-.36-.36-.36l-12.79-.02c-.35,0-.64-.26-.68-.61-.02-.13-.03-1.86-.03-5.2s.01-5.07.02-5.2c.05-.35.34-.61.69-.61l12.79-.02c.19,0,.35-.16.36-.36l.02-13.12c0-.29.22-.52.5-.54.18-.03,1.88-.04,5.09-.04s4.9.01,5.09.03c.28.03.49.26.49.54l.03,13.12c.01.2.17.36.36.36l12.79.02c.35,0,.65.27.69.61.01.13.02,1.86.02,5.2s-.01,5.08-.02,5.2ZM167.28,102.21l-31.08.05c-.41,0-.74-.33-.74-.74l-.02-10.26c0-.41.33-.74.74-.74l31.08-.05c.41,0,.74.33.74.74l.02,10.26c0,.41-.33.74-.74.74Z"/>
</svg>