<?xml version="1.0" encoding="UTF-8"?>
<svg id="Layer_1" data-name="Layer 1" xmlns="http://www.w3.org/2000/svg" viewBox="0 0 185.17 183.81">
  <defs>
    <style>
      .cls-1 {
        fill: #dc161f;
      }
    </style>
  </defs>
  <path d="M173.5,92.44l4.83-.4c.38-.03.67-.34.66-.72-.13-9.34-1.58-18.18-4.33-26.51-.16-.5-.68-.78-1.19-.66l-4.76,1.2c-.49.12-.99-.16-1.15-.64l-1.29-3.98c-.1-.31.01-.64.28-.81l4.2-2.75c.48-.32.67-.94.45-1.47-3.37-8.07-8.07-15.53-14.11-22.37-.2-.22-.54-.27-.79-.1l-4.61,3.02c-.1.07-.24.06-.33-.03l-3.27-3c-.28-.26-.32-.69-.09-1l3.19-4.17c.18-.23.16-.56-.04-.77-5.83-6.08-12.86-10.9-21.11-14.47-.38-.17-.82,0-1,.38l-2.16,4.7c-.21.45-.75.65-1.21.44l-3.74-1.73c-.53-.24-.79-.84-.6-1.39l1.66-4.94c.09-.26-.04-.55-.3-.66-7.74-3.11-16.1-4.92-25.09-5.43-.38-.02-.7.26-.72.64l-.36,5.73c-.02.3-.26.53-.56.53h-4.98c-.21,0-.39-.17-.41-.38l-.5-6.02c-.03-.33-.31-.58-.64-.57-8.52.31-16.96,2.11-25.31,5.4-.3.12-.46.46-.36.76l1.69,5.22c.17.53-.12,1.1-.65,1.28l-3.83,1.24c-.4.13-.83-.06-1-.44l-2.12-4.68c-.18-.39-.62-.56-1.01-.4-8.37,3.45-15.55,8.22-21.54,14.32-.2.2-.23.52-.07.75l2.93,4.48c.1.16.09.36-.02.5l-2.55,3.34c-.27.35-.78.42-1.14.15l-3.9-2.99c-.57-.44-1.39-.35-1.85.21-5.8,7.01-10.41,14.7-13.83,23.07-.14.33,0,.71.3.89l4.32,2.5c.57.33.8,1.04.52,1.64l-1.56,3.39c-.15.33-.51.5-.86.42l-4.69-1.06c-.54-.12-1.08.2-1.23.73-2.59,8.85-3.88,17.72-3.87,26.59,0,.39.31.72.7.74l4.57.28c.58.03,1.03.51,1.03,1.09v4.28c0,.45-.33.83-.77.9l-4.56.76c-.39.07-.66.41-.63.8.63,9.29,2.96,18.26,6.97,26.91.15.32.52.48.86.37l4.35-1.41c.4-.13.84.06,1.02.45l1.76,3.86c.18.41.04.89-.33,1.13l-3.61,2.36c-.42.28-.56.84-.31,1.29,3.45,6.17,7.86,11.8,13.24,16.91,2.14,2.03,4.8,3.45,7.16,5.93.11.11,1.59,1.09,4.44,2.94.35.23.82.17,1.11-.14l3.2-3.48c.18-.2.48-.24.71-.11l3.39,1.95c.41.24.57.76.37,1.19l-1.69,3.68c-.28.61-.05,1.34.53,1.67,8.18,4.74,16.58,7.93,25.19,9.58.29.05.57-.11.66-.39l1.73-5.12c.16-.48.67-.76,1.16-.65l4.18.94c.27.06.45.31.43.58l-.31,5.01c-.03.58.39,1.08.96,1.15,9.63,1.11,19.3.51,29.02-1.81.32-.08.54-.38.51-.71l-.37-4.54c-.05-.52.29-.99.8-1.12l3.11-.78c.53-.13,1.08.13,1.31.63l1.74,3.82c.2.44.69.65,1.14.49,8.63-3.01,16.4-7.14,23.31-12.41.41-.31.5-.88.22-1.31l-2.24-3.41c-.33-.5-.19-1.16.31-1.49l3.13-2.05c.15-.1.34-.09.48.02l3.79,2.89c.19.15.46.15.65-.01,6.83-5.7,12.13-12.38,15.91-20.03.22-.44.08-.96-.32-1.24l-3.72-2.55c-.3-.21-.41-.61-.25-.94l1.87-4.06c.16-.35.55-.51.91-.39l4.69,1.58c.38.12.79-.06.95-.43,3.72-8.69,5.85-17.69,6.38-27.01.01-.26-.17-.49-.42-.55l-4.9-1.11c-.37-.08-.63-.41-.63-.79v-4.25c0-.45.35-.83.81-.87ZM94.69,150.61c-30.67.69-56.11-24.39-56.83-56.02-.71-31.63,23.56-57.84,54.23-58.54,30.67-.69,56.11,24.39,56.83,56.02.71,31.63-23.56,57.84-54.23,58.54Z"/>
  <path class="cls-1" d="M132.54,68.71c1.26,2.07.93,4.82-1.61,5.55-7.14,2.08-14.45,5-21.78,6.53-.45.1-.93.09-1.38-.03-2.95-.75-5.17-2.33-6.64-4.74-.28-.46-.45-.98-.5-1.53-1.01-11.26-1.43-19.33-1.26-24.22.05-1.42.77-2.45,2.16-3.09.24-.11.51-.15.77-.13,4.55.35,9.76,2.43,15.61,6.23,5.79,3.75,10.67,8.9,14.63,15.43Z"/>
  <path class="cls-1" d="M54.12,73.43c-1.01-.75-1.33-2.13-.74-3.24,5.46-10.38,13.76-17.63,24.89-21.74,2.03-.75,3.93-1.18,5.68-1.27,1.07-.06,2,.74,2.11,1.81.2,1.97.26,4.37.19,7.22-.15,5.66-.16,11.07-.03,16.23.05,2.24-.73,4.11-2.35,5.61-2.81,2.61-6.09,3.26-9.86,1.97-.15-.05-6.32-2.03-18.52-5.94-.57-.18-1.02-.4-1.37-.65Z"/>
  <path class="cls-1" d="M92.94,84.25c5.03-.24,9.31,3.85,9.57,9.14.26,5.29-3.61,9.78-8.63,10.03-5.03.24-9.31-3.85-9.57-9.14-.26-5.29,3.61-9.79,8.63-10.03Z"/>
  <path class="cls-1" d="M76.43,99.35c.61,1.92.9,4.06-.28,5.95-4.05,6.47-8.33,12.82-12.85,19.07-.18.25-.43.45-.71.58-1.5.69-2.81.47-3.94-.64-4.39-4.36-7.15-10.29-9.1-16.41-1.94-6.12-3.12-12.55-2.06-18.65.28-1.56,1.23-2.49,2.85-2.8.3-.05.62-.03.91.07,7.3,2.48,14.47,5.19,21.51,8.13,2.06.85,3.06,2.77,3.67,4.7Z"/>
  <path class="cls-1" d="M137.09,108.07c-1.96,6.13-4.73,12.06-9.14,16.42-1.13,1.11-2.44,1.32-3.94.63-.29-.13-.53-.33-.71-.58-4.52-6.26-8.8-12.64-12.85-19.12-1.17-1.89-.88-4.04-.26-5.96.62-1.93,1.62-3.85,3.68-4.7,7.05-2.93,14.24-5.64,21.55-8.11.3-.1.61-.12.92-.06,1.62.31,2.57,1.24,2.84,2.8,1.06,6.11-.13,12.55-2.09,18.68Z"/>
  <path class="cls-1" d="M93.45,111.51c3.08-.01,4.74.5,6.64,3.08,7.01,9.51,11.28,15.47,12.83,17.89.7,1.1.47,2.3-.68,3.61-.17.19-.37.34-.6.44-5.88,2.75-11.91,4.13-18.1,4.15-6.19.01-12.23-1.33-18.13-4.04-.22-.1-.43-.25-.6-.44-1.16-1.3-1.39-2.5-.7-3.6,1.53-2.43,5.77-8.42,12.72-17.97,1.89-2.59,3.55-3.11,6.62-3.12Z"/>
</svg>