<?xml version="1.0" encoding="UTF-8"?>
<svg id="Layer_1" data-name="Layer 1" xmlns="http://www.w3.org/2000/svg" viewBox="0 0 273.6 190.59">
  <defs>
    <style>
      .cls-1 {
        fill: #f6a100;
      }
    </style>
  </defs>
  <path class="cls-1" d="M209.59,108.83c.39-.44,1.04-.55,1.55-.26,6.96,3.93,15.05,4.27,23.34,4.25,5.29-.01,9.01.3,11.15.93,8.41,2.49,14.22,7.8,17.43,15.94,2.25,5.73,2.96,11.28,2.11,16.66-.19,1.18-1.02,2.02-2.49,2.51-18.17,6.11-36.11,9.57-53.84,10.38-10.37.47-21.21.27-32.5-.61-6.3-.49-10.97-1.12-14.02-1.9-8.69-2.23-16.47-5.34-23.36-9.34-5.15-2.99-8.87-4.9-11.18-5.75-6.69-2.46-12.84-3.95-18.45-4.46-10.89-.99-22.26-1.41-34.11-1.25-2.31.03-3.48-1.05-3.53-3.26-.15-7.25.75-15.24,2.7-23.99,4.52-20.31,7.67-33.81,9.46-40.51.2-.75.82-1.84,1.86-3.28.36-.49.61-1.06.74-1.65.34-1.54.47-3.48.4-5.81-.07-2.42-2.32-4.31-2.32-7.25,0-5.38-.02-16.79-.07-34.23-.02-4.86,3.28-5.85,7.66-5.83,19.99.09,36.23.06,48.72-.07.65,0,1.28-.24,1.77-.66,2.52-2.12,5.41-3.49,8.95-3.84,6.48-.63,12.28-.63,17.41,0,6.16.76,7.89,5.14,8.3,11.27.34,5.13.56,10.47.65,16.02.01.62-.49,1.12-1.1,1.12h-13.32c-2.11,0-3.72,1.88-3.39,3.95l.08.47c.32,2.08,2.11,3.61,4.2,3.61h12.65c.78,0,1.44.56,1.56,1.33l2.58,16.56c.17,1.07-.66,2.03-1.74,2.03h-12.79c-2.17,0-3.89,1.82-3.77,3.99l.02.47c.07,2.09,1.8,3.74,3.89,3.72,4.5-.05,9.35-.25,14.56-.61,1.62-.11,2.64.44,3.06,1.66,1.59,4.65,3.34,8.84,5.27,12.57.32.62,0,1.37-.65,1.6l-13.02,4.46c-1.91.66-2.93,2.74-2.27,4.65l.27.78c.56,1.65,2.35,2.52,4,1.96l14.91-5.11c.72-.25,1.52-.04,2.02.53l8.69,9.92c.45.52.45,1.29,0,1.81l-8.14,9.29c-1.33,1.52-1.09,3.86.53,5.07l.2.16c1.47,1.2,3.62,1.02,4.87-.4l8.5-9.6Z"/>
  <path class="cls-1" d="M61.31,106.31c0,2.94-2.39,5.32-5.33,5.31l-28.4-.05c-2.94,0-5.32-2.4-5.31-5.33v-.32c.01-2.94,2.39-5.32,5.33-5.31l28.4.05c2.94,0,5.32,2.4,5.31,5.33v.32Z"/>
  <path class="cls-1" d="M54.26,136.63c0,2.99-2.42,5.41-5.41,5.41H9.43c-2.99,0-5.41-2.42-5.41-5.41v-.28c0-2.99,2.42-5.41,5.41-5.41h39.42c2.99,0,5.41,2.42,5.41,5.41v.28Z"/>
  <path class="cls-1" d="M161.55,178.38c-.28-.72-.9-1.26-1.66-1.42-8.94-1.93-18.25-5.36-25.87-9.03-9.3-4.49-8.17,3.84-8.1,9.94.01.24-.02.48-.08.72-.61,2.53-2.44,3.8-5.51,3.81-13.1.01-28.58,0-46.45-.02-4.09,0-7.49-.98-7.51-5.5-.05-14.21-.09-23.67-.12-28.38,0-3.29,1.6-4.88,4.84-4.76,2.07.08,8.83.09,20.26.02,5.18-.03,10.07.48,15.93.79,7.99.43,15.75,2.49,23.27,6.18,6.87,3.36,13.68,7.5,21.73,10.22,6.9,2.33,14.92,3.93,24.05,4.78,30.04,2.81,60.81-.36,89.26-10.55,2.01-.72,3.53-.04,4.56,2.03.14.27.22.57.23.87.2,3.83.2,7.53.01,11.11-.18,3.28-1.75,5.64-4.71,7.08-3.41,1.66-6.6,2.89-9.59,3.69-27.77,7.46-58.75,7.74-87.12,5.16-5.13-.47-5.75-2.43-7.42-6.74Z"/>
  <path class="cls-1" d="M52.03,166.44c.03,2.9-2.29,5.27-5.18,5.29l-15.94.17c-2.9.03-5.27-2.29-5.29-5.18v-.44c-.03-2.9,2.29-5.27,5.18-5.29l15.94-.17c2.9-.03,5.27,2.29,5.29,5.18v.44Z"/>
</svg>