<?xml version="1.0" encoding="UTF-8"?>
<svg id="Layer_1" data-name="Layer 1" xmlns="http://www.w3.org/2000/svg" viewBox="0 0 238.87 239.72">
  <defs>
    <style>
      .cls-1 {
        fill: #dc161f;
      }

      .cls-2 {
        fill: #f6a100;
      }
    </style>
  </defs>
  <path class="cls-1" d="M157.98,186.32c2.15,1.79,4.4,3,6.75,3.61.19.05.37.08.56.09l10.17.48c.94.05,1.61.93,1.41,1.85-.54,2.47-1.61,4.8-3.91,6.5-13.78,10.23-27.89,16.83-42.33,19.8-21.4,4.4-42.24,2.29-62.51-6.34-9.81-4.17-18.51-9.47-26.11-15.9C14.58,173.23.6,137.07,5.25,101.26c2.85-21.99,11.53-41.24,26.06-57.76,3.33-3.78,8.25-8.27,14.78-13.48,10.92-8.72,25.84-14.84,38.75-18.16,14.79-3.81,29.37-4.37,43.72-1.69,14.35,2.68,27.79,8.38,40.32,17.11,24.33,16.95,41.27,45.35,43.81,75.42.17,1.92-1.25,2.74-3.15,2.68-5.13-.17-10.98-.72-14.81,2.19-.5.38-1.22.05-1.27-.58-2.35-31.18-20.7-57.08-48.13-70.41-13.01-6.32-27.05-8.95-42.11-7.9-31.24,2.17-59.13,22.23-71.83,50.9-6.35,14.33-8.6,29.59-6.74,45.8,4.59,40,38.05,72.96,79.16,75.44,18.86,1.14,36.5-3.72,52.92-14.57.39-.26.89-.23,1.25.07Z"/>
  <path class="cls-1" d="M113.05,47.51c-.07,2.62-2.24,4.69-4.85,4.62l-.76-.02c-2.61-.07-4.68-2.24-4.62-4.85l.14-5.72c.07-2.62,2.24-4.69,4.85-4.62l.76.02c2.61.07,4.68,2.24,4.62,4.85l-.14,5.72Z"/>
  <path class="cls-1" d="M119.32,114.97c.06.68.42,1.31.98,1.71,7.84,5.55,17.51,12.67,29.01,21.34,1.61,1.21,2.07,3.13,1.39,5.76-.82,3.14-2.8,4.67-5.93,4.59-1.43-.04-3-.71-4.73-2.01-6.79-5.11-15.79-11.71-26.98-19.8-.31-.23-.71-.31-1.08-.22-5.23,1.29-9.31.15-12.22-3.42-4.42-5.42-3.65-12.84,2.14-17.01.23-.17.37-.44.37-.72.11-20.69.12-32.43.02-35.24-.1-2.81.17-4.71.81-5.7,2.26-3.51,7.82-3.51,9.99-.04.47.75.7,2.63.71,5.66.05,17.56.11,29.2.16,34.92,0,.49.23.96.6,1.27,2.91,2.42,4.49,5.39,4.76,8.91Z"/>
  <path class="cls-1" d="M48.25,114.58c.13,2.78-2.01,5.13-4.79,5.26l-5.05.24c-2.78.13-5.13-2.01-5.26-4.79l-.04-.76c-.13-2.78,2.01-5.13,4.79-5.26l5.05-.24c2.78-.13,5.13,2.01,5.26,4.79l.04.76Z"/>
  <path class="cls-1" d="M183.22,114.88c0,2.75-2.23,4.97-4.98,4.96h-5.24c-2.74-.01-4.97-2.24-4.96-4.99v-.72c.01-2.75,2.23-4.97,4.98-4.96h5.24c2.74.01,4.97,2.24,4.96,4.99v.72Z"/>
  <path class="cls-2" d="M211.81,158.5c-.41,1.08.39,2.23,1.54,2.22,9.65-.06,16.25-.07,19.82-.04.84.01,1.54.25,2.1.72,2.08,1.76.8,3.63-.71,5.39-18.38,21.34-27.72,32.18-28.01,32.51-10.54,11.99-20.76,23.76-30.65,35.33-1.03,1.2-2.1,1.58-3.22,1.14-1.17-.46-1.73-1.8-1.25-3,5.24-13.19,8.61-23.39,13.64-35.28,1.36-3.21,3.15-8.04,5.38-14.48.42-1.21-.48-2.48-1.76-2.48-9.03-.01-15.53-.03-19.49-.06-2.68-.02-4.54-1.32-3.07-4.08,14.11-26.59,22.79-42.81,30.76-58.51,1.19-2.35,2.79-2.76,5.47-2.8,14.89-.23,25.23-.23,31.04-.01,1.63.07,2.49,1.03,2.56,2.88.06,1.69-2.53,4.95-3.66,6.8-9.44,15.32-15.44,25.01-17.99,29.06-1.2,1.91-2.03,3.47-2.5,4.69Z"/>
  <path class="cls-1" d="M112.97,187.74c-.06,2.62-2.23,4.7-4.85,4.65h-.64c-2.62-.07-4.7-2.23-4.65-4.86l.12-5.78c.06-2.62,2.23-4.7,4.85-4.65h.64c2.62.07,4.7,2.23,4.65,4.86l-.12,5.78Z"/>
</svg>