<?xml version="1.0" encoding="UTF-8"?>
<svg id="Layer_1" data-name="Layer 1" xmlns="http://www.w3.org/2000/svg" xmlns:xlink="http://www.w3.org/1999/xlink" viewBox="0 0 1541.75 492.25">
  <defs>
    <style>
      .cls-1, .cls-2 {
        fill: none;
      }

      .cls-3 {
        fill: #e11219;
      }

      .cls-4 {
        clip-path: url(#clippath-1);
      }

      .cls-2 {
        stroke: #71090d;
        stroke-width: .5px;
      }

      .cls-5 {
        clip-path: url(#clippath);
      }
    </style>
    <clipPath id="clippath">
      <path class="cls-1" d="M17.79,353.1c1.35-.23,2.37-.78,3.07-1.65l108.65-55.47c.46-.24.83-.64,1.02-1.12l45.97-116.75c.22-.55.98-.58,1.24-.05l62.71,126.38c.2.4.6.65,1.04.65h117.91c.54,0,.87-.59.59-1.05l-91.2-149.21c-.46-.75-.27-1.73.43-2.26,19.02-14.35,38.74-28.84,59.17-43.48,45.15-32.35,92.58-65.88,142.31-100.6.69-.48.35-1.56-.49-1.56h-141.81c-.56,0-1.1.2-1.52.57l-126.63,112.15c-.62.55-1.55-.13-1.22-.89L247.17,7.78c.14-.31-.05-.67-.39-.73-.38-.07-.87-.1-1.48-.1H75.23c-.71,0-1.16.77-.8,1.38.14.25.36.45.67.62,12.04,6.61,33.14,18.2,63.3,34.79.42.23.59.73.41,1.17L6.68,356.74c-.34.79.49,1.58,1.27,1.2l9.84-4.84ZM455.2,259.29c.63-.73.93-1.5.89-2.3l86.36-219.38c.11-.29-.1-.6-.42-.6h-75.57c-.33,0-.62.2-.74.5-2.99,7.66-5.99,15.25-8.98,22.77l-.21.54-87.09,221.17c-.12.31.11.64.44.64h75.61c.3,0,.57-.18.68-.46l9.03-22.88ZM524.85,143.54c-.42.38-.62.9-.61,1.55l-53.83,136.83c-.13.34.12.71.48.71h76.42c.31,0,.59-.19.7-.48l39.8-102.76c.08-.2.36-.21.45-.01l46.31,102.64c.16.37.53.61.94.61h92.92c.33,0,.54-.35.39-.64l-63.74-126.56c-.23-.46-.11-1.02.28-1.36l133.83-114.85c.3-.26.12-.75-.28-.75h-85.51c-.65,0-1.28.24-1.77.67l-103.62,91.77c-.25.22-.63-.04-.51-.35l36-92.93c.12-.3-.11-.63-.43-.63h-75.67c-.34,0-.64.21-.76.52l-41.79,106.02ZM1117.64,139.82c-3.96-.67-7.96-.68-12-.03-.82-.09-1.64-.03-2.45.18-.31.08-.56.32-.65.62l-13.28,42.21c-.15.49-.14,1.02.04,1.5l35.88,97.77c.08.21.28.35.5.35h84.39c1.26.01,2.1-1.28,1.6-2.43l-38.33-88.19c-.08-.19.05-.41.26-.42,13.73-.83,21.03-1.25,21.9-1.27,4.51-.09,8.15-.71,10.91-1.86,8.14-3.4,14.74-9.13,19.79-16.2,1.76-2.47,3.65-6.67,5.68-12.61,15.84-46.51,25.22-73.85,28.15-82.02,1.33-3.73,2.2-6.89,2.62-9.49.95-5.93-.13-11.3-3.23-16.11-7.26-11.3-24.17-13.38-36.36-13.37-85.53.05-142.72.04-171.58-.03-.26,0-.49.16-.57.4l-87.04,242.99c-.11.3.11.62.43.62h75.41c.28,0,.53-.18.63-.45l66.78-186.44c.06-.15.21-.25.37-.25h69.96c.34,0,.57.33.46.65l-15.52,43.32c-.11.32-.41.53-.75.53l-44,.03Z"/>
    </clipPath>
    <clipPath id="clippath-1">
      <path class="cls-1" d="M544.18,441.7c-.6.73-.88,1.6-.85,2.63l-4.75,13.76c-.21.59.23,1.2.85,1.2h32.9c.89,0,1.67-.59,1.92-1.44.8-2.78,1.66-5.48,2.57-8.09.49-1.4,1.34-2.59,1.31-4.04-.01-.32.1-.62.31-.86.1-.11.31-.64.63-1.57,1.82-5.31,4.01-11.6,6.56-18.88.17-.48.63-.81,1.15-.81,25.15.06,39.07.03,41.77-.09,9.08-.39,18.9-2.86,25.23-9.62,1.55-1.65,3.19-4.92,4.94-9.83,3.99-11.15,8.03-22.41,12.14-33.76,4.28-11.85-.18-22.36-13.81-22.36-31.49-.01-57.71-.01-78.68,0-.99,0-1.88.63-2.2,1.57l-31.99,92.19ZM1079.48,457.48c-.39.61-.37,1.19.04,1.74.21.28.55.44.9.44h31.47c.35,0,.69-.1.98-.29.8-.53,1.17-1.17,1.11-1.91l37.4-107.78c.26-.74-.28-1.53-1.07-1.55-9.5-.3-18.99-.08-28.18.01-2.54.03-4.79,0-5.48,2.01-12.31,35.8-24.7,71.58-37.17,107.33Z"/>
    </clipPath>
  </defs>
  <g class="cls-5">
    <g>
      <path class="cls-2" d="M456.09,256.99c-.55.47-.85,1.24-.89,2.3" vector-effect="non-scaling-stroke"/>
      <path class="cls-2" d="M524.24,145.09c.5-.27.7-.79.61-1.55" vector-effect="non-scaling-stroke"/>
    </g>
  </g>
  <path d="M1275.02,83.16l17.79-76.37c.09-.4.45-.68.86-.68h45.77c.75,0,1.16.87.68,1.44l-63.56,76.38c-.6.71-1.75.14-1.54-.77Z"/>
  <path d="M7.95,357.94c-.78.38-1.61-.41-1.27-1.2L138.81,44.91c.18-.44.01-.94-.41-1.17-30.16-16.59-51.26-28.18-63.3-34.79-.31-.17-.53-.37-.67-.62-.36-.61.09-1.38.8-1.38h170.07c.61,0,1.1.03,1.48.1.34.06.53.42.39.73l-48.14,110.98c-.33.76.6,1.44,1.22.89L326.88,7.5c.42-.37.96-.57,1.52-.57h141.81c.84,0,1.18,1.08.49,1.56-49.73,34.72-97.16,68.25-142.31,100.6-20.43,14.64-40.15,29.13-59.17,43.48-.7.53-.89,1.51-.43,2.26l91.2,149.21c.28.46-.05,1.05-.59,1.05h-117.91c-.44,0-.84-.25-1.04-.65l-62.71-126.38c-.26-.53-1.02-.5-1.24.05l-45.97,116.75c-.19.48-.56.88-1.02,1.12L7.95,357.94Z"/>
  <path d="M1307.45,69.92c9.03-18.26,27.92-30.04,47.34-34.29,4.51-.99,13.06-1.48,25.63-1.47,100.92.06,154.78.1,155.02.24.36.21.52.65.38,1.05l-28.09,78.41c-.14.39-.51.65-.92.65h-70.32c-.34,0-.58-.33-.48-.66l7.49-23.83c.07-.24-.1-.48-.35-.48h-65.5c-.28,0-.53.18-.61.44l-5.94,18.9c-.11.36.05.74.39.91,64.96,31.75,98.52,48.19,100.69,49.31,15.59,8.08,18.7,21.42,12.89,37.28-3.53,9.6-9.91,27.02-19.15,52.25-9.1,24.87-36.64,34.5-60.87,34.48-25.51-.02-83.24-.03-173.21-.02-.24,0-.41-.24-.33-.47l29.34-81.09c.11-.32.42-.53.76-.53h70.39c.28,0,.47.28.38.54l-8.74,24.15c-.1.28.1.57.4.57h70.23c.29,0,.56-.17.69-.43l10.54-21.61c.14-.28.02-.63-.27-.76-63.25-28.83-106.84-49.02-108.69-50.84-6.16-6.06-9.88-15.79-9.71-24.26.05-2.51.87-5.82,2.46-9.95l18.16-48.49Z"/>
  <path d="M456.09,256.99c-.55.47-.85,1.24-.89,2.3l-9.03,22.88c-.11.28-.38.46-.68.46h-75.61c-.33,0-.56-.33-.44-.64l87.09-221.17.21-.54c2.99-7.52,5.99-15.11,8.98-22.77.12-.3.41-.5.74-.5h75.57c.32,0,.53.31.42.6l-86.36,219.38Z"/>
  <path d="M524.24,145.09c.5-.27.7-.79.61-1.55l41.79-106.02c.12-.31.42-.52.76-.52h75.67c.32,0,.55.33.43.63l-36,92.93c-.12.31.26.57.51.35l103.62-91.77c.49-.43,1.12-.67,1.77-.67h85.51c.4,0,.58.49.28.75l-133.83,114.85c-.39.34-.51.9-.28,1.36l63.74,126.56c.15.29-.06.64-.39.64h-92.92c-.41,0-.78-.24-.94-.61l-46.31-102.64c-.09-.2-.37-.19-.45.01l-39.8,102.76c-.11.29-.39.48-.7.48h-76.42c-.36,0-.61-.37-.48-.71l53.83-136.83Z"/>
  <path d="M1027.35,39.26l-21.82,56.32c-.08.21-.29.35-.52.35h-129.99c-.25,0-.47.16-.56.39l-13.11,33.29c-.15.37.12.77.52.77h95.96c.33,0,.56.33.45.64l-20.23,55.9c-.14.4-.52.66-.94.66h-96c-.4,0-.75.24-.88.61l-12.81,35.41c-.07.19.07.39.27.39h134.11c.29,0,.48.29.37.55l-23.08,57.65c-.1.27-.36.44-.65.44-69.54.02-132.25.01-188.13-.02-.8,0-1.75-.65-2.84-1.94-5.63-6.63-8.48-14.26-8.57-22.89,0-.47.07-.94.23-1.38l78.67-217.4c.11-.32.41-.53.75-.53h208.26c.41,0,.68.41.54.79Z"/>
  <path d="M1161.64,139.79c.34,0,.64-.21.75-.53l15.52-43.32c.11-.32-.12-.65-.46-.65h-69.96c-.16,0-.31.1-.37.25l-66.78,186.44c-.1.27-.35.45-.63.45h-75.41c-.32,0-.54-.32-.43-.62l87.04-242.99c.08-.24.31-.4.57-.4,28.86.07,86.05.08,171.58.03,12.19-.01,29.1,2.07,36.36,13.37,3.1,4.81,4.18,10.18,3.23,16.11-.42,2.6-1.29,5.76-2.62,9.49-2.93,8.17-12.31,35.51-28.15,82.02-2.03,5.94-3.92,10.14-5.68,12.61-5.05,7.07-11.65,12.8-19.79,16.2-2.76,1.15-8.86,1.73-10.91,1.86l-21.9,1.27c-.21.01-.34.23-.26.42l38.33,88.19c.5,1.15-.34,2.44-1.6,2.44h-84.39c-.22-.01-.42-.15-.5-.36l-35.88-97.77c-.18-.48-.19-1.01-.04-1.5l13.28-42.21c.09-.3.34-.54.65-.62.81-.21,58.45-.18,58.45-.18Z"/>
  <path class="cls-3" d="M524.85,143.54c.09.76-.11,1.28-.61,1.55-.01-.65.19-1.17.61-1.55Z"/>
  <path class="cls-3" d="M456.09,256.99c.04.8-.26,1.57-.89,2.3.04-1.06.34-1.83.89-2.3Z"/>
  <path class="cls-3" d="M1529.26,393.45l-.32.82c-.15.4-.52.67-.94.7l-200.56,15.42c-.81.06-1.4-.74-1.11-1.5l10.14-26.21c.17-.44.61-.72,1.09-.7l190.73,9.97c.75.04,1.24.8.97,1.5Z"/>
  <path class="cls-3" d="M267.52,382.22c.74-.04,1.28.69,1.04,1.39l-8.97,25.86c-.25.71-.94,1.16-1.69,1.1l-186.08-15.89c-.3-.03-.52-.29-.5-.59l.09-1.05c.03-.34.31-.61.65-.63l195.46-10.19Z"/>
  <path class="cls-3" d="M1334.37,322.41s-.18-.07-.37-.09H255.66c-.73,0-1.15.85-.69,1.42,21.17,26.57,36.26,45.51,45.27,56.82.95,1.19,1.2,2.4.77,3.64-4.77,13.75-15.77,45.43-33.01,95.03-.79,2.29-.05,3.83,2.23,4.62.04.02.08.03.13.03,6.91.03,339.47.02,997.7-.03,1.59-.01,2.74-.89,3.44-2.64,20.53-51.35,41.58-103.96,63.13-157.83.15-.39.07-.71-.26-.97ZM1320.12,333.3l-55.74,139.23c-.28.69-.95,1.15-1.69,1.15H282.8c-.97,0-1.65-.96-1.33-1.87,20.35-58.65,30.61-88.25,30.78-88.8.45-1.38-.74-3.46-1.62-4.61-19.23-25.13-30.57-39.96-34-44.48-.29-.38-.48-.68-.58-.91-.27-.63.2-1.33.89-1.33h1042.08c.84,0,1.42.85,1.1,1.62Z"/>
  <g class="cls-4">
    <path class="cls-2" d="M1113.98,457.46c-.77,1.05-1.82,1.58-3.13,1.6-10.03.13-20.27.14-30.71.03-.28,0-.51-.22-.54-.5l-.12-1.11" vector-effect="non-scaling-stroke"/>
  </g>
  <path d="M464.37,347.68c.68,0,1.15.66.93,1.3-8.57,24.69-19.13,55.14-31.67,91.36-1.78,5.13-3.38,8.49-4.8,10.1-3.8,4.29-8.42,6.13-14.25,7.57-5.25,1.29-17.28,1.06-17.28,1.06l-51.74-.09c-4.79-.01-9.66-.93-12.46-4.64-2.97-3.92-3.22-8.48-1.88-12.82l31.91-92.5c.29-.82,1.06-1.37,1.93-1.37h31.73c.75,0,1.28.74,1.03,1.45l-28.18,81.02c-1.13,3.25.68,5.19,4.04,5.2l21.84-.03c4.42-.24,6.13-3.19,7.57-7.41,2.67-7.83,11.61-33.95,26.83-78.34.38-1.11,1.42-1.86,2.6-1.86h31.85Z"/>
  <path d="M833.08,348.89c.21-.59.77-.99,1.39-.99h31.6c.89,0,1.52.89,1.23,1.73l-29.25,84.27c-.24.71.28,1.45,1.03,1.45h43.43c.77,0,1.31.76,1.06,1.49l-7.23,20.82c-.26.75-.96,1.25-1.76,1.25-45.68-.02-71.34-.02-76.99,0-.78.01-1.22-.02-1.33-.08-.63-.4-.91-1.19-.66-1.9l37.48-108.04Z"/>
  <path d="M803.92,347.85c.67,0,1.15.67.93,1.3l-31.62,91.5c-2.11,6.2-3.38,8.5-4.8,10.11-3.8,4.3-8.46,6.82-14.26,7.6-5.07.91-17.3,1.07-17.3,1.07l-51.8-.04c-4.79,0-9.67-.92-12.47-4.63-2.98-3.92-3.4-8.05-1.9-12.84l31.86-92.63c.29-.82,1.06-1.37,1.93-1.37l31.77-.03c.75,0,1.28.74,1.03,1.45-13.28,38.25-22.66,65.29-28.14,81.14-1.12,3.25.69,5.19,4.05,5.2l21.87-.05c4.42-.25,6.13-3.2,7.57-7.43,2.66-7.84,11.59-33.99,26.79-78.45.37-1.11,1.42-1.86,2.6-1.87l31.89-.03Z"/>
  <path d="M901.06,457.13l37.48-108.02c.21-.59.77-.99,1.39-.99h31.59c.9,0,1.52.88,1.23,1.73l-29.24,84.25c-.24.71.28,1.45,1.03,1.45h43.42c.77,0,1.31.76,1.06,1.49l-7.23,20.82c-.26.75-.96,1.25-1.76,1.25-45.67-.02-71.33-.02-76.98,0-.78.01-1.22-.02-1.33-.08-.63-.4-.91-1.19-.66-1.9Z"/>
  <path d="M1113.98,457.46c-.77,1.05-1.82,1.58-3.13,1.6-10.03.13-20.27.14-30.71.03-.28,0-.51-.22-.54-.5l-.12-1.11c12.47-35.75,24.86-71.53,37.17-107.33.69-2.01,2.94-1.98,5.48-2.01,9.19-.09,18.68-.31,28.18-.01.79.02,1.33.81,1.07,1.55l-37.4,107.78Z"/>
  <path d="M1270.32,348.1c.84,0,1.42.84,1.12,1.63l-7.86,20.28c-.14.36-.48.6-.87.6h-28.77c-.6,0-1.13.38-1.32.94l-29.57,85.22c-.48,1.38-1.78,2.31-3.24,2.31h-30.4c-.9-.01-1.54-.9-1.24-1.76l29.5-85.03c.35-.99-.39-2.02-1.44-2.02h-27.63c-.72,0-1.23-.72-.99-1.4,1.59-4.55,3.65-10.44,6.16-17.67.53-1.52,1.51-2.54,2.93-3.06.08-.03.17-.04.26-.04h93.36Z"/>
  <path d="M532.22,391.36l-6.99,20.15c-.27.77-1,1.29-1.82,1.29h-51.69c-1.32,0-2.25-1.3-1.82-2.55l6.99-20.15c.27-.77,1-1.29,1.82-1.29h51.69c1.32,0,2.25,1.3,1.82,2.55Z"/>
  <path d="M1008.66,410.09l7.01-20.22c.25-.72.93-1.2,1.69-1.2h51.99c1.22,0,2.08,1.21,1.68,2.36l-7.01,20.22c-.25.72-.93,1.2-1.69,1.2h-51.99c-1.22,0-2.08-1.21-1.68-2.36Z"/>
  <path class="cls-3" d="M1079.48,457.48l.12,1.11c.03.28.26.5.54.5,10.44.11,20.68.1,30.71-.03,1.31-.02,2.36-.55,3.13-1.6.06.74-.31,1.38-1.11,1.91-.29.19-.63.29-.98.29h-31.47c-.35,0-.69-.16-.9-.44-.41-.55-.43-1.13-.04-1.74Z"/>
  <path d="M657.05,347.94c-31.49-.01-57.71-.01-78.68,0-.99,0-1.88.63-2.2,1.57l-37.59,108.58c-.21.59.23,1.2.85,1.2h32.9c.89,0,1.67-.59,1.92-1.44l11.38-33.44c.17-.48.63-.81,1.15-.81,25.15.06,39.07.03,41.77-.09,9.08-.39,18.9-2.86,25.23-9.62,1.55-1.65,3.19-4.92,4.94-9.83,3.99-11.15,8.03-22.41,12.14-33.76,4.28-11.85-.18-22.36-13.81-22.36ZM632.2,376.18l-6.84,19.36c-.53,1.47-1.45,2.23-2.78,2.26-7.44.17-16.57.16-27.39-.03-.52,0-.88-.52-.71-1.01l8.9-25.65c.21-.6.77-1,1.4-1l22.15-.03c1.04-.03,3.57.25,4.18.77,1.76,1.51,1.91,2.98,1.09,5.33Z"/>
</svg>